<svg width="359" height="172" viewBox="0 0 359 172" fill="none" xmlns="http://www.w3.org/2000/svg">
<rect x="0.482422" y="0.485352" width="358" height="171" rx="7" fill="#222222"/>
<path d="M21.0636 19.3332H23.5476V15.3372H25.9236V25.2012H23.5476V21.2592H21.0636V19.3332ZM22.0536 22.8972L20.9016 24.7512C19.1016 24.1572 17.8596 22.9872 17.1396 21.5292C16.4196 23.2032 15.1056 24.5532 13.1796 25.2012L11.9736 23.3292C14.6016 22.4112 15.8076 20.3052 15.8796 18.2352H12.6216V16.3272H21.5316V18.2352H18.3096C18.3816 20.1252 19.5336 22.0692 22.0536 22.8972ZM20.3256 30.1332C22.4856 30.1332 23.6196 29.6832 23.6196 28.7472C23.6196 27.8112 22.4856 27.3612 20.3256 27.3612C18.1476 27.3612 17.0136 27.8112 17.0136 28.7472C17.0136 29.6832 18.1476 30.1332 20.3256 30.1332ZM20.3256 25.5612C23.8356 25.5612 25.9956 26.7312 25.9956 28.7472C25.9956 30.7632 23.8356 31.9332 20.3256 31.9332C16.7976 31.9332 14.6376 30.7632 14.6376 28.7472C14.6376 26.7312 16.7976 25.5612 20.3256 25.5612ZM30.8181 20.3772C30.8181 21.6912 31.5021 22.4472 32.4741 22.4472C33.4461 22.4472 34.1301 21.6912 34.1301 20.3772C34.1301 19.0992 33.4461 18.3252 32.4741 18.3252C31.5021 18.3252 30.8181 19.0992 30.8181 20.3772ZM36.2541 20.3772C36.2541 22.7892 34.6701 24.4452 32.4741 24.4452C30.2781 24.4452 28.6761 22.7892 28.6761 20.3772C28.6761 18.0012 30.2781 16.3272 32.4741 16.3272C34.6701 16.3272 36.2541 18.0012 36.2541 20.3772ZM31.3401 27.8652V25.9932H42.7521V31.9332H40.3761V27.8652H31.3401ZM40.5021 15.3372H42.7521V25.2192H40.5021V21.2592H39.2421V25.1832H37.0281V15.6252H39.2421V19.3512H40.5021V15.3372ZM50.4367 18.9192V19.7292C50.4367 22.5012 51.2467 25.2912 53.6407 26.6952L52.2547 28.4232C50.7967 27.5412 49.8427 26.1192 49.3027 24.3732C48.7267 26.2632 47.7547 27.8832 46.2607 28.8192L44.8567 27.0732C47.2687 25.5432 48.1327 22.5732 48.1327 19.7292V18.9192H45.4687V16.9932H52.8487V18.9192H50.4367ZM53.8027 20.9892V15.6072H56.0167V31.1592H53.8027V22.9152H51.6967V20.9892H53.8027ZM57.1507 15.3192H59.4007V31.8972H57.1507V15.3192Z" fill="white"/>
<rect x="11.1274" y="63.3672" width="30" height="30" rx="4" fill="#323232"/>
<path d="M32.7064 76.1564L29.6403 72.4093H26.0847M32.7064 76.1564L26.0847 84.3251L19.5485 76.1564M32.7064 76.1564H28.9591M19.5485 76.1564L22.529 72.4093H26.0847M19.5485 76.1564H23.2887M28.9591 76.1564L26.0847 82.2693L23.2887 76.1564M28.9591 76.1564L26.0847 72.4093M28.9591 76.1564H23.2887M26.0847 72.4093L23.2887 76.1564" stroke="#A5A5A5" stroke-width="1.5" stroke-linecap="round"/>
<path d="M63.7024 71.0222H64.9324V84.5072H63.7024V71.0222ZM57.8374 72.0572C59.8324 72.0572 61.2574 73.8872 61.2574 76.7522C61.2574 79.6172 59.8324 81.4472 57.8374 81.4472C55.8424 81.4472 54.4174 79.6172 54.4174 76.7522C54.4174 73.8872 55.8424 72.0572 57.8374 72.0572ZM57.8374 73.1672C56.5174 73.1672 55.5874 74.5772 55.5874 76.7522C55.5874 78.9422 56.5174 80.3522 57.8374 80.3522C59.1424 80.3522 60.0724 78.9422 60.0724 76.7522C60.0724 74.5772 59.1424 73.1672 57.8374 73.1672ZM73.7963 83.5172C75.8963 83.5172 77.1563 82.9922 77.1563 82.0772C77.1563 81.1622 75.8963 80.6372 73.7963 80.6372C71.6813 80.6372 70.4363 81.1622 70.4363 82.0772C70.4363 82.9922 71.6813 83.5172 73.7963 83.5172ZM73.7963 79.6772C76.6913 79.6772 78.4013 80.5322 78.4013 82.0772C78.4013 83.6222 76.6913 84.4622 73.7963 84.4622C70.9163 84.4622 69.1913 83.6222 69.1913 82.0772C69.1913 80.5322 70.9163 79.6772 73.7963 79.6772ZM71.9363 76.1072V77.6822H75.6713V76.1072C75.1163 76.1972 74.4863 76.2572 73.7963 76.2572C73.1213 76.2572 72.4913 76.1972 71.9363 76.1072ZM70.3313 73.7672C70.3313 74.7272 71.6513 75.3122 73.7963 75.3122C75.9413 75.3122 77.2613 74.7272 77.2613 73.7672C77.2613 72.7922 75.9413 72.2222 73.7963 72.2222C71.6513 72.2222 70.3313 72.7922 70.3313 73.7672ZM76.8863 77.6822H79.8863V78.6722H67.7063V77.6822H70.7213V75.7922C69.6563 75.3572 69.0713 74.6822 69.0713 73.7672C69.0713 72.1922 70.8863 71.2622 73.7963 71.2622C76.7213 71.2622 78.5213 72.1922 78.5213 73.7672C78.5213 74.6672 77.9213 75.3572 76.8863 75.7772V77.6822ZM86.4588 72.4622H92.6088C92.6088 76.2872 90.8538 79.7522 86.5038 81.9272L85.8288 80.9672C89.2638 79.2422 91.1088 76.6622 91.3938 73.4822H86.4588V72.4622ZM98.2488 76.4822V77.5022H96.0888V84.4772H94.8588V71.0222H96.0888V76.4822H98.2488ZM110.323 74.7722V75.7622H101.188V71.3072H102.418V74.7722H110.323ZM105.613 83.4722C107.713 83.4722 108.973 82.9172 108.973 81.9872C108.973 81.0272 107.728 80.4872 105.613 80.4872C103.498 80.4872 102.253 81.0272 102.253 81.9872C102.253 82.9172 103.498 83.4722 105.613 83.4722ZM105.613 79.5272C108.478 79.5272 110.218 80.4122 110.218 81.9872C110.218 83.5472 108.478 84.4322 105.613 84.4322C102.748 84.4322 101.008 83.5472 101.008 81.9872C101.008 80.4122 102.748 79.5272 105.613 79.5272ZM99.5527 77.3222H111.718V78.3272H99.5527V77.3222ZM121.317 72.6722V73.6622H113.382V72.6722H116.727V71.0222H117.957V72.6722H121.317ZM115.302 76.9022C115.302 77.8472 116.127 78.4472 117.342 78.4472C118.557 78.4472 119.397 77.8472 119.397 76.9022C119.397 75.9722 118.557 75.3722 117.342 75.3722C116.127 75.3722 115.302 75.9722 115.302 76.9022ZM120.567 76.9022C120.567 78.4172 119.247 79.4072 117.342 79.4072C115.437 79.4072 114.132 78.4172 114.132 76.9022C114.132 75.4022 115.437 74.4122 117.342 74.4122C119.247 74.4122 120.567 75.4022 120.567 76.9022ZM116.637 80.3222V83.1722H124.377V84.1772H115.407V80.3222H116.637ZM123.777 75.4622H125.757V76.4972H123.777V81.1172H122.547V71.0222H123.777V75.4622ZM135.569 78.5672V81.7322H139.319V78.5672C138.749 78.7022 138.104 78.7772 137.429 78.7772C136.769 78.7772 136.124 78.7022 135.569 78.5672ZM137.429 72.8372C135.269 72.8372 133.724 73.8272 133.724 75.3272C133.724 76.8272 135.269 77.8172 137.429 77.8172C139.589 77.8172 141.149 76.8272 141.149 75.3272C141.149 73.8272 139.589 72.8372 137.429 72.8372ZM140.549 81.7322H143.564V82.7522H131.339V81.7322H134.339V78.1022C133.214 77.5172 132.539 76.5422 132.539 75.3272C132.539 73.2272 134.579 71.8772 137.429 71.8772C140.294 71.8772 142.319 73.2272 142.319 75.3272C142.319 76.5422 141.659 77.5022 140.549 78.0872V81.7322ZM147.853 80.5022V83.3072H154.618V80.5022H147.853ZM146.653 84.2972V79.5122H155.833V84.2972H146.653ZM155.428 76.6922H157.363V77.6822H145.138V76.6922H154.183C154.573 75.0122 154.573 73.7822 154.573 72.7322H146.698V71.7422H155.788V72.7322C155.788 73.7822 155.788 75.0122 155.428 76.6922ZM162.897 73.6022V74.8172C162.897 77.1572 163.902 79.4972 165.762 80.5472L165.012 81.4472C163.707 80.6672 162.777 79.2272 162.312 77.5172C161.847 79.3622 160.872 80.9372 159.537 81.7772L158.787 80.8622C160.662 79.7372 161.712 77.2922 161.712 74.8172V73.6022H159.162V72.5972H165.297V73.6022H162.897ZM166.497 75.8522V71.3222H167.667V83.7722H166.497V76.8572H164.277V75.8522H166.497ZM169.197 71.0072H170.382V84.4622H169.197V71.0072Z" fill="white"/>
<path d="M337.33 71.6743L343.925 78.3345L337.33 85.06" stroke="#A5A5A5" stroke-width="1.5" stroke-linecap="round"/>
<rect x="11.1274" y="116.367" width="30" height="30" rx="4" fill="#323232"/>
<path fill-rule="evenodd" clip-rule="evenodd" d="M33.9076 131.885C33.9019 131.971 33.8965 132.057 33.8881 132.142C33.8832 132.192 33.8759 132.242 33.8702 132.292C33.861 132.369 33.8522 132.445 33.8411 132.521C33.8331 132.574 33.8235 132.627 33.8143 132.68C33.8021 132.752 33.7902 132.824 33.7761 132.895C33.7654 132.949 33.7531 133.002 33.7413 133.056C33.726 133.125 33.7107 133.194 33.6935 133.263C33.6801 133.316 33.6652 133.37 33.6506 133.423C33.6323 133.49 33.6139 133.557 33.5937 133.624C33.5578 133.743 33.519 133.861 33.4774 133.978C33.4172 134.146 33.3515 134.312 33.2804 134.476C33.2309 134.588 33.1794 134.7 33.1259 134.81C33.0954 134.872 33.0636 134.933 33.0319 134.994C33.0066 135.042 32.9818 135.089 32.9558 135.136C32.922 135.197 32.8874 135.257 32.8521 135.317C32.8254 135.362 32.799 135.407 32.7714 135.452C32.7343 135.512 32.6957 135.572 32.6567 135.631C32.6288 135.674 32.6016 135.716 32.5729 135.758C32.5316 135.819 32.4884 135.878 32.4452 135.938C32.4169 135.977 32.3898 136.016 32.3607 136.055C32.3133 136.118 32.2639 136.179 32.2142 136.241C32.1878 136.274 32.1622 136.307 32.1354 136.34C32.0746 136.414 32.0115 136.485 31.9484 136.556C31.9308 136.575 31.9148 136.596 31.8972 136.615C31.815 136.705 31.7312 136.793 31.6448 136.879C31.6295 136.895 31.6127 136.91 31.597 136.925C31.5266 136.995 31.455 137.063 31.3821 137.13C31.3511 137.159 31.319 137.185 31.288 137.213C31.2283 137.265 31.169 137.318 31.1079 137.369C31.0708 137.4 31.0329 137.429 30.9954 137.459C30.9381 137.504 30.8811 137.55 30.8226 137.595C30.7816 137.625 30.74 137.655 30.6987 137.685L30.569 137.777C30.5812 137.768 30.5946 137.761 30.6072 137.752C30.5927 137.762 30.5778 137.771 30.5633 137.781C30.551 137.79 30.5392 137.799 30.5269 137.807C30.483 137.837 30.4386 137.866 30.3942 137.895C30.3187 137.944 30.2424 137.992 30.1652 138.039L30.1384 138.055C30.1441 138.052 30.1502 138.049 30.1556 138.045L30.0757 138.092C30.0191 138.126 29.9625 138.159 29.9051 138.191L29.8298 138.231C29.7858 138.255 29.741 138.278 29.6963 138.301L29.673 138.313C29.6385 138.331 29.6049 138.349 29.5701 138.366C29.5234 138.388 29.4768 138.411 29.4294 138.433L29.3911 138.45C29.349 138.47 29.307 138.489 29.2645 138.508L29.2462 138.516C29.2091 138.532 29.1712 138.548 29.1337 138.564C29.0684 138.591 29.0026 138.618 28.9364 138.643C28.8917 138.66 28.8473 138.677 28.8026 138.693L28.7448 138.715C28.6955 138.732 28.6454 138.749 28.5953 138.766C28.5544 138.779 28.5134 138.793 28.4721 138.806L28.4557 138.811C28.4113 138.825 28.367 138.838 28.3222 138.851L28.1945 138.888C28.1398 138.902 28.0855 138.918 28.0304 138.932L28.0025 138.938L27.9337 138.955C27.9459 138.952 27.9574 138.948 27.9696 138.946L27.8901 138.964C27.9042 138.961 27.9191 138.959 27.9337 138.955C27.9 138.963 27.866 138.97 27.8323 138.977L27.8274 138.978C27.7727 138.991 27.7184 139.003 27.6633 139.014C27.6063 139.026 27.5489 139.035 27.4916 139.045C27.4579 139.051 27.4247 139.058 27.391 139.064C27.4067 139.061 27.422 139.057 27.4377 139.055L27.3547 139.069C27.3669 139.067 27.3791 139.066 27.391 139.064L27.3348 139.072L27.2897 139.08C27.2135 139.091 27.1367 139.1 27.0598 139.109C27.0101 139.115 26.9604 139.122 26.9099 139.127L26.8984 139.129H26.8912C26.8705 139.131 26.8491 139.131 26.8284 139.133C26.781 139.138 26.7336 139.14 26.6862 139.144C26.5252 139.156 26.363 139.163 26.1993 139.165C26.1848 139.165 26.171 139.167 26.1569 139.167H26.0984C26.0846 139.167 26.0716 139.165 26.0578 139.165C25.8904 139.163 25.7231 139.156 25.5561 139.143C25.5106 139.14 25.4647 139.137 25.4192 139.133C25.4008 139.131 25.3821 139.131 25.3633 139.129H25.3565C25.2202 139.115 25.0844 139.097 24.9492 139.075C24.9687 139.078 24.9886 139.08 25.0081 139.082C24.9595 139.075 24.9098 139.071 24.8616 139.063L24.7928 139.05C24.8111 139.053 24.8291 139.058 24.8474 139.062C24.8146 139.056 24.7824 139.048 24.7495 139.042L24.7381 139.041C24.7178 139.037 24.6983 139.032 24.6784 139.028C24.5489 139.005 24.42 138.978 24.2918 138.948L24.3285 138.955L24.2681 138.941L24.2918 138.948C24.2363 138.935 24.1824 138.918 24.1273 138.903L24.1361 138.906C24.1304 138.904 24.125 138.902 24.1193 138.901L24.1273 138.903C24.016 138.874 23.9047 138.845 23.7954 138.811L23.7816 138.807C23.7667 138.802 23.7522 138.797 23.7372 138.792L23.7304 138.789C23.6688 138.769 23.6084 138.746 23.5472 138.725L23.6267 138.753C23.5847 138.738 23.543 138.723 23.5013 138.708L23.5472 138.725C23.4535 138.692 23.3598 138.659 23.268 138.623L23.2217 138.605C23.2152 138.602 23.2091 138.599 23.2026 138.597C23.1397 138.571 23.0771 138.544 23.0148 138.517C23.0557 138.535 23.0971 138.551 23.138 138.569C23.0772 138.543 23.0167 138.516 22.9567 138.49C22.9762 138.498 22.9953 138.508 23.0148 138.517C22.9506 138.489 22.8856 138.461 22.8221 138.431L22.8083 138.425C22.7999 138.422 22.7911 138.418 22.7827 138.414C22.7525 138.4 22.7238 138.382 22.694 138.368C22.6328 138.338 22.5716 138.308 22.5112 138.276C22.5628 138.303 22.6156 138.328 22.668 138.354C22.5929 138.317 22.5185 138.279 22.4446 138.239C22.4672 138.251 22.4886 138.264 22.5112 138.276C22.4603 138.249 22.4098 138.223 22.3597 138.195L22.3414 138.186C22.3226 138.175 22.3043 138.164 22.2859 138.154C22.2618 138.14 22.2393 138.125 22.2155 138.111L22.1953 138.099L22.2056 138.105C22.1226 138.057 22.0408 138.008 21.9601 137.957C21.9842 137.972 22.0071 137.989 22.0316 138.004C21.9922 137.98 21.954 137.954 21.9153 137.93L21.9119 137.927L21.853 137.889C21.8232 137.87 21.7949 137.849 21.7654 137.829C21.7023 137.786 21.6377 137.746 21.5757 137.701C21.622 137.735 21.6713 137.764 21.7184 137.796C21.6358 137.74 21.5524 137.685 21.4721 137.625L21.4889 137.638C21.4832 137.634 21.4778 137.629 21.4721 137.625C21.3971 137.569 21.3241 137.51 21.2511 137.452L21.2476 137.449L21.2468 137.449C21.2147 137.423 21.1818 137.398 21.1497 137.371L21.1493 137.371L21.1367 137.36C21.048 137.286 20.96 137.21 20.8747 137.132L20.8679 137.126L20.8625 137.121C20.8311 137.093 20.8021 137.063 20.7715 137.033C20.7111 136.976 20.6506 136.919 20.5921 136.861L20.5849 136.853C20.5608 136.829 20.5378 136.804 20.5141 136.779C20.5332 136.799 20.5512 136.82 20.5707 136.84C20.5512 136.82 20.5328 136.799 20.5133 136.779L20.482 136.745C20.4288 136.689 20.3753 136.633 20.3237 136.576L20.3229 136.575C20.2934 136.542 20.2648 136.508 20.2361 136.475L20.2139 136.449C20.136 136.358 20.06 136.266 19.986 136.172C19.9783 136.163 19.9711 136.153 19.9638 136.143C19.8918 136.051 19.822 135.957 19.7542 135.862C19.7458 135.85 19.7382 135.837 19.7297 135.826C19.6868 135.764 19.6446 135.702 19.6032 135.639C19.5821 135.607 19.5603 135.575 19.5397 135.542C19.5301 135.527 19.5217 135.512 19.5125 135.497C19.4736 135.435 19.4356 135.373 19.3986 135.309C19.394 135.301 19.3886 135.292 19.3836 135.284C19.3695 135.261 19.355 135.237 19.3412 135.213C19.3309 135.195 19.3217 135.176 19.3117 135.158C19.2759 135.093 19.241 135.028 19.207 134.962C19.1905 134.931 19.1733 134.901 19.1576 134.87C19.1477 134.851 19.1389 134.831 19.1293 134.811C19.0954 134.742 19.0628 134.672 19.0314 134.602C19.0188 134.575 19.0054 134.548 18.9932 134.521L18.9733 134.474C18.9377 134.393 18.9044 134.31 18.8719 134.228L18.8452 134.162L18.8341 134.131C18.7964 134.031 18.7608 133.931 18.7274 133.829L18.7144 133.792L18.7106 133.78C18.616 133.49 18.5386 133.195 18.4788 132.896L18.4757 132.88C18.4696 132.849 18.4654 132.818 18.4597 132.788C18.4428 132.699 18.4275 132.61 18.4138 132.522L18.4081 132.487C18.4019 132.444 18.3981 132.399 18.3928 132.355C18.3821 132.275 18.3728 132.195 18.3648 132.115C18.3641 132.107 18.3625 132.099 18.3622 132.091C18.361 132.08 18.3614 132.069 18.3606 132.059C18.3396 131.829 18.3287 131.598 18.3281 131.367C18.3281 131.267 18.3319 131.167 18.3358 131.067C18.3381 131.011 18.3404 130.954 18.3434 130.898C18.348 130.822 18.3541 130.748 18.3606 130.673C18.3564 130.719 18.3507 130.764 18.3476 130.81C18.3507 130.764 18.3568 130.718 18.3606 130.672C18.3656 130.616 18.3706 130.56 18.3767 130.505C18.3851 130.43 18.3947 130.356 18.405 130.283C18.4126 130.227 18.4203 130.172 18.4291 130.118V130.117C18.4409 130.044 18.4543 129.972 18.4681 129.9V129.899C18.4784 129.845 18.4887 129.79 18.5002 129.737V129.736C18.5158 129.664 18.5324 129.593 18.5499 129.522C18.5626 129.469 18.5756 129.415 18.5897 129.363V129.362C18.6084 129.292 18.6283 129.222 18.649 129.153L18.6494 129.152C18.6647 129.1 18.68 129.047 18.6964 128.995L18.6968 128.994C18.7186 128.926 18.7419 128.859 18.7656 128.791L18.7664 128.789C18.7844 128.738 18.802 128.687 18.8211 128.636L18.8215 128.635C18.8463 128.568 18.8727 128.503 18.8991 128.437L18.9002 128.435C18.9205 128.385 18.9408 128.334 18.9618 128.285L18.9626 128.284C18.9912 128.218 19.0207 128.153 19.0509 128.089C19.0735 128.04 19.0957 127.991 19.1194 127.943L19.1201 127.941C19.1507 127.878 19.1829 127.817 19.2154 127.755L19.2173 127.751C19.2421 127.704 19.2666 127.656 19.2926 127.609L19.2934 127.608C19.3267 127.547 19.3618 127.488 19.3966 127.428L19.3993 127.424C19.4265 127.378 19.4532 127.331 19.4812 127.285L19.4823 127.284C19.5183 127.225 19.5557 127.168 19.5932 127.111L19.5963 127.106C19.6257 127.061 19.6544 127.016 19.6846 126.972L19.6858 126.97C19.724 126.914 19.7642 126.859 19.8039 126.804L19.8081 126.798C19.8395 126.755 19.8701 126.712 19.9022 126.669L19.9037 126.667C19.9443 126.613 19.9867 126.561 20.0292 126.508L20.0338 126.502C20.067 126.46 20.0999 126.418 20.134 126.377C20.1344 126.377 20.1349 126.376 20.1355 126.375C20.1783 126.324 20.2231 126.273 20.2674 126.223L20.2732 126.217C20.3084 126.177 20.3428 126.136 20.3787 126.097L20.3806 126.095C20.4258 126.046 20.4728 125.998 20.5191 125.95L20.5256 125.943C20.5627 125.905 20.599 125.866 20.6369 125.829C20.6375 125.828 20.638 125.828 20.6384 125.827L20.6522 125.813L20.6392 125.827C20.6801 125.786 20.7225 125.747 20.7642 125.707C20.7298 125.74 20.6942 125.772 20.6602 125.805C20.7004 125.765 20.7424 125.728 20.7833 125.689L20.7906 125.682C20.8296 125.646 20.8679 125.609 20.9072 125.573L20.9092 125.572C20.9516 125.533 20.996 125.496 21.0396 125.458C21.0029 125.49 20.9654 125.52 20.9294 125.552C20.9723 125.514 21.0166 125.478 21.0598 125.441C21.0626 125.438 21.0654 125.436 21.0682 125.434C21.1084 125.4 21.1482 125.364 21.1891 125.331L21.191 125.329L21.2109 125.313L21.1914 125.329C21.2358 125.293 21.2813 125.258 21.3264 125.223C21.2881 125.253 21.2488 125.282 21.2109 125.313C21.2556 125.276 21.3023 125.241 21.3482 125.206L21.357 125.199C21.3991 125.166 21.44 125.134 21.4824 125.102L21.484 125.101L21.5035 125.086L21.4851 125.1C21.5314 125.066 21.5784 125.033 21.6251 125C21.5849 125.029 21.5432 125.056 21.5035 125.086C21.5505 125.051 21.5994 125.018 21.6476 124.985L21.6576 124.978C21.7004 124.947 21.7429 124.916 21.7865 124.887L21.788 124.886L21.8067 124.873L21.7899 124.885C21.8377 124.853 21.887 124.823 21.9352 124.791C21.8928 124.819 21.8488 124.845 21.8067 124.873C21.8564 124.84 21.9073 124.809 21.9578 124.777L21.9689 124.77C22.0129 124.742 22.0565 124.713 22.1012 124.687L22.1027 124.686C22.1086 124.682 22.1146 124.678 22.1207 124.674L22.1054 124.684C22.1551 124.654 22.206 124.626 22.2565 124.597C22.2113 124.623 22.1651 124.648 22.1207 124.674C22.1723 124.643 22.2259 124.614 22.2783 124.585L22.2905 124.578C22.3356 124.552 22.38 124.526 22.4255 124.501L22.427 124.5L22.4442 124.491L22.4305 124.499C22.4825 124.47 22.536 124.444 22.5884 124.417C22.5406 124.442 22.4917 124.465 22.4442 124.491C22.4985 124.461 22.554 124.435 22.6087 124.407C22.6133 124.405 22.6177 124.403 22.6221 124.4C22.668 124.377 22.7131 124.353 22.7597 124.331L22.7609 124.33L22.7773 124.322L22.7655 124.328C22.8202 124.302 22.876 124.278 22.9315 124.253C22.8802 124.276 22.8282 124.298 22.7773 124.322C22.8339 124.295 22.8917 124.271 22.949 124.245L22.9636 124.238C23.0099 124.218 23.0557 124.196 23.1028 124.176L23.1039 124.176C23.1091 124.174 23.1142 124.171 23.1192 124.169L23.1093 124.174C23.1674 124.149 23.2267 124.127 23.2856 124.104C23.2301 124.126 23.1743 124.146 23.1192 124.169C23.1781 124.144 23.2386 124.123 23.2982 124.099L23.3147 124.093C23.3613 124.075 23.4072 124.055 23.4546 124.038H23.4554C23.4601 124.036 23.465 124.034 23.4699 124.032L23.4615 124.036C23.5246 124.013 23.5892 123.992 23.6531 123.971C23.5919 123.991 23.5303 124.011 23.4699 124.032C23.5315 124.01 23.5942 123.991 23.6562 123.97L23.6753 123.963C23.7219 123.948 23.7675 123.931 23.8141 123.917H23.8149L23.8283 123.912L23.8218 123.915C23.8883 123.894 23.956 123.876 24.0229 123.857L24.0126 123.86L24.0394 123.853L24.0627 123.846C24.1025 123.835 24.1415 123.823 24.1816 123.812H24.182L24.1939 123.809L24.19 123.81C24.2589 123.793 24.3289 123.778 24.3985 123.763L24.374 123.768C24.4092 123.76 24.444 123.751 24.4795 123.744L24.5132 123.736C24.5277 123.733 24.5419 123.729 24.556 123.726L24.5564 123.726L24.5667 123.724L24.5652 123.725C24.6371 123.71 24.7101 123.698 24.7832 123.686L24.7442 123.692C24.8092 123.681 24.8734 123.668 24.9385 123.658L24.9388 123.658L24.9453 123.657H24.9469C25.005 123.648 25.0643 123.642 25.1228 123.634C25.0834 123.639 25.0432 123.644 25.0039 123.649C25.062 123.641 25.1209 123.634 25.1794 123.627L25.1228 123.634C25.1905 123.626 25.2578 123.615 25.3262 123.608H25.3266L25.3347 123.608H25.335C25.3928 123.602 25.4513 123.599 25.5094 123.594L25.4524 123.599C25.5006 123.595 25.5484 123.591 25.5966 123.588L25.5094 123.594C25.5794 123.589 25.649 123.582 25.7194 123.578H25.7198L25.7286 123.578C25.7867 123.575 25.8456 123.575 25.9037 123.573L25.8712 123.574C25.9565 123.571 26.0414 123.568 26.1274 123.568C30.4352 123.568 33.9268 127.059 33.9268 131.367C33.9268 131.498 33.9229 131.628 33.9168 131.757C33.9145 131.8 33.9103 131.842 33.9076 131.885ZM21.6025 133.862C21.6618 134.123 21.923 134.287 22.1846 134.227C24.8991 133.607 27.2044 133.859 29.0355 134.979C29.2649 135.119 29.5644 135.047 29.7043 134.817C29.7375 134.762 29.7597 134.702 29.7696 134.638C29.7794 134.575 29.7768 134.51 29.7617 134.448C29.7467 134.386 29.7196 134.327 29.682 134.276C29.6444 134.224 29.5971 134.181 29.5429 134.149C27.487 132.892 24.9388 132.6 21.9677 133.279C21.906 133.293 21.8474 133.318 21.7955 133.355C21.7436 133.391 21.6993 133.438 21.6653 133.492C21.6313 133.547 21.6083 133.607 21.5975 133.671C21.5867 133.734 21.5884 133.799 21.6025 133.862ZM21.2912 131.58C21.3891 131.901 21.7287 132.082 22.0507 131.984C24.5304 131.232 27.7264 131.605 29.8221 132.894C30.1078 133.069 30.4826 132.979 30.6585 132.694C30.7002 132.626 30.7281 132.55 30.7406 132.471C30.7531 132.392 30.75 132.311 30.7314 132.233C30.7128 132.155 30.6791 132.081 30.6323 132.017C30.5855 131.952 30.5265 131.898 30.4589 131.857C28.0511 130.379 24.53 129.962 21.697 130.821C21.6213 130.844 21.5506 130.881 21.4891 130.931C21.4277 130.981 21.3766 131.043 21.3388 131.114C21.3011 131.185 21.2775 131.262 21.2693 131.342C21.2611 131.422 21.2686 131.503 21.2912 131.58ZM31.4853 129.227C28.5911 127.509 24.0114 127.347 21.2564 128.184C21.1655 128.211 21.0808 128.255 21.007 128.316C20.9332 128.376 20.8719 128.451 20.8267 128.535C20.7815 128.62 20.7532 128.713 20.7435 128.809C20.7338 128.905 20.743 129.001 20.7703 129.094C20.887 129.48 21.2943 129.697 21.6801 129.58C24.0799 128.852 28.2266 128.989 30.7411 130.482C30.9074 130.581 31.105 130.61 31.2918 130.562C31.4785 130.514 31.6396 130.394 31.7404 130.226C31.7892 130.144 31.8214 130.053 31.835 129.957C31.8486 129.862 31.8433 129.765 31.8195 129.672C31.7958 129.579 31.7539 129.491 31.6965 129.415C31.6391 129.339 31.5673 129.275 31.4853 129.227ZM26.1068 123.568H26.1274C26.0525 123.568 25.9783 123.571 25.9037 123.573C25.9714 123.571 26.0387 123.568 26.1068 123.568Z" fill="#A5A5A5"/>
<path d="M58.1374 131.567V134.732H61.8874V131.567C61.3174 131.702 60.6724 131.777 59.9974 131.777C59.3374 131.777 58.6924 131.702 58.1374 131.567ZM59.9974 125.837C57.8374 125.837 56.2924 126.827 56.2924 128.327C56.2924 129.827 57.8374 130.817 59.9974 130.817C62.1574 130.817 63.7174 129.827 63.7174 128.327C63.7174 126.827 62.1574 125.837 59.9974 125.837ZM63.1174 134.732H66.1324V135.752H53.9074V134.732H56.9074V131.102C55.7824 130.517 55.1074 129.542 55.1074 128.327C55.1074 126.227 57.1474 124.877 59.9974 124.877C62.8624 124.877 64.8874 126.227 64.8874 128.327C64.8874 129.542 64.2274 130.502 63.1174 131.087V134.732ZM70.4213 133.502V136.307H77.1863V133.502H70.4213ZM69.2213 137.297V132.512H78.4013V137.297H69.2213ZM77.9963 129.692H79.9313V130.682H67.7063V129.692H76.7513C77.1413 128.012 77.1413 126.782 77.1413 125.732H69.2663V124.742H78.3563V125.732C78.3563 126.782 78.3563 128.012 77.9963 129.692ZM85.4651 126.602V127.817C85.4651 130.157 86.4701 132.497 88.3301 133.547L87.5801 134.447C86.2751 133.667 85.3451 132.227 84.8801 130.517C84.4151 132.362 83.4401 133.937 82.1051 134.777L81.3551 133.862C83.2301 132.737 84.2801 130.292 84.2801 127.817V126.602H81.7301V125.597H87.8651V126.602H85.4651ZM89.0651 128.852V124.322H90.2351V136.772H89.0651V129.857H86.8451V128.852H89.0651ZM91.7651 124.007H92.9501V137.462H91.7651V124.007ZM106.603 129.767L105.388 129.632C105.703 128.087 105.748 126.932 105.748 126.077H100.258V125.072H106.948V125.777C106.948 126.662 106.948 127.997 106.603 129.767ZM107.878 130.577L107.968 131.477C105.178 131.942 101.953 132.017 99.5677 132.017L99.4477 131.012C100.303 131.012 101.278 130.997 102.298 130.982V128.072H103.513V130.937C104.983 130.877 106.513 130.757 107.878 130.577ZM102.733 133.232V136.172H110.443V137.177H101.503V133.232H102.733ZM110.008 128.402H111.928V129.422H110.008V134.162H108.778V124.022H110.008V128.402ZM115.347 130.067V133.217C117.552 133.217 119.532 133.112 121.887 132.737L122.007 133.742C119.577 134.147 117.537 134.237 115.227 134.237H114.117V129.077H119.067V126.272H114.072V125.267H120.312V130.067H115.347ZM123.147 124.007H124.377V137.492H123.147V124.007ZM131.08 133.457C132.31 133.457 133.195 132.587 133.195 131.387C133.195 130.172 132.31 129.302 131.08 129.302C129.865 129.302 128.98 130.172 128.98 131.387C128.98 132.587 129.865 133.457 131.08 133.457ZM131.08 128.282C133 128.282 134.365 129.572 134.365 131.387C134.365 133.217 133 134.477 131.08 134.477C129.19 134.477 127.825 133.217 127.825 131.387C127.825 129.572 129.19 128.282 131.08 128.282ZM131.68 124.187V126.182H134.995V127.172H127.06V126.182H130.45V124.187H131.68ZM139.705 129.557V130.592H137.5V137.477H136.27V124.037H137.5V129.557H139.705ZM141.729 125.477H148.029C148.029 129.362 146.244 132.782 141.774 134.972L141.114 133.967C144.729 132.242 146.529 129.662 146.784 126.467H141.729V125.477ZM150.744 124.022H151.974V137.477H150.744V124.022Z" fill="white"/>
<path d="M337.33 124.674L343.925 131.334L337.33 138.06" stroke="#A5A5A5" stroke-width="1.5" stroke-linecap="round"/>
</svg>
