<svg width="32" height="32" viewBox="0 0 32 32" fill="none" xmlns="http://www.w3.org/2000/svg">
<path fill-rule="evenodd" clip-rule="evenodd" d="M31.9608 17.0614C31.949 17.2383 31.938 17.4143 31.9208 17.5888C31.9106 17.6928 31.8957 17.7952 31.8839 17.8976C31.8651 18.0553 31.847 18.2121 31.8243 18.3673C31.8078 18.4762 31.7882 18.5842 31.7693 18.6922C31.7442 18.8402 31.7199 18.9883 31.6909 19.1347C31.6689 19.2451 31.6438 19.354 31.6195 19.4636C31.5881 19.606 31.5567 19.7476 31.5214 19.8885C31.494 19.9989 31.4634 20.1077 31.4336 20.2173C31.3959 20.355 31.3582 20.4926 31.3167 20.6294C31.2431 20.8733 31.1636 21.1153 31.0782 21.3552C30.9546 21.7005 30.8198 22.0416 30.6741 22.3778C30.5725 22.6083 30.4669 22.837 30.3572 23.0636C30.2944 23.1908 30.2293 23.3156 30.1642 23.4405C30.1124 23.5381 30.0614 23.6349 30.008 23.7317C29.9387 23.8561 29.8678 23.9796 29.7954 24.1022C29.7405 24.195 29.6864 24.2879 29.6299 24.3799C29.5538 24.5039 29.4746 24.6255 29.3945 24.7472C29.3373 24.8344 29.2816 24.9224 29.2227 25.008C29.138 25.1329 29.0493 25.2545 28.9607 25.3769C28.9026 25.4569 28.8469 25.5369 28.7873 25.6162C28.69 25.7458 28.5888 25.8714 28.4868 25.9978C28.4327 26.0659 28.3801 26.1347 28.3252 26.2019C28.2005 26.3523 28.071 26.4988 27.9416 26.6452C27.9055 26.6844 27.8725 26.726 27.8364 26.7652C27.6677 26.9501 27.4959 27.1309 27.3186 27.3077C27.2872 27.3398 27.2527 27.3702 27.2206 27.4022C27.0763 27.5451 26.9292 27.6851 26.7796 27.8223C26.7161 27.8807 26.6502 27.9351 26.5866 27.9919C26.4643 28.0999 26.3427 28.2079 26.2171 28.312C26.141 28.3752 26.0634 28.4352 25.9865 28.4968C25.8688 28.5904 25.7519 28.6841 25.6319 28.7753C25.5479 28.8385 25.4624 28.8985 25.3777 28.9601L25.1117 29.1498C25.1368 29.1314 25.1643 29.1162 25.1902 29.0985C25.1603 29.1194 25.1297 29.137 25.0999 29.1578C25.0748 29.1754 25.0505 29.1938 25.0254 29.2106C24.9352 29.2722 24.8442 29.3314 24.7532 29.3906C24.5983 29.4925 24.4416 29.5914 24.2832 29.6875L24.2283 29.7195C24.2401 29.7131 24.2526 29.7067 24.2636 29.6995L24.0996 29.7963C23.9835 29.8651 23.8674 29.9323 23.7497 29.998L23.5952 30.0812C23.505 30.13 23.4132 30.178 23.3214 30.2252L23.2735 30.2492C23.2029 30.2852 23.1339 30.322 23.0625 30.3572C22.9668 30.4036 22.871 30.45 22.7738 30.4957L22.6953 30.5309C22.609 30.5709 22.5227 30.6101 22.4356 30.6485L22.398 30.6653C22.3219 30.6989 22.2442 30.7309 22.1673 30.7637C22.0333 30.8203 21.8983 30.8744 21.7625 30.9262C21.6707 30.9614 21.5797 30.9958 21.4879 31.0294L21.3694 31.0734C21.2682 31.1094 21.1654 31.1438 21.0627 31.1774C20.9787 31.2054 20.8948 31.2334 20.81 31.2598L20.7763 31.2702C20.6853 31.299 20.5943 31.3263 20.5025 31.3527L20.2405 31.4279C20.1283 31.4583 20.0169 31.4895 19.9039 31.5183L19.8466 31.5311L19.7054 31.5663C19.7305 31.5607 19.754 31.5527 19.7792 31.5471L19.616 31.5847C19.645 31.5775 19.6756 31.5735 19.7054 31.5663C19.6364 31.5831 19.5665 31.5959 19.4975 31.6119L19.4873 31.6143C19.3751 31.6391 19.2637 31.6655 19.1507 31.6879C19.0338 31.7111 18.9162 31.7311 18.7985 31.7511C18.7294 31.7631 18.6612 31.7783 18.5921 31.7896C18.6243 31.7839 18.6557 31.7759 18.6878 31.7703L18.5176 31.7992C18.5427 31.7952 18.5678 31.7936 18.5921 31.7896L18.4768 31.8064L18.3842 31.8224C18.2281 31.8456 18.0704 31.8632 17.9127 31.8824C17.8107 31.8944 17.7087 31.9096 17.6052 31.9192L17.5816 31.9224H17.5667C17.5244 31.9264 17.4804 31.928 17.4381 31.932C17.3408 31.9408 17.2435 31.9464 17.1462 31.9536C16.8159 31.9776 16.4833 31.9928 16.1475 31.996C16.1177 31.996 16.0894 32 16.0604 32H15.9404C15.9121 32 15.8855 31.9968 15.8572 31.996C15.5137 31.9922 15.1705 31.9776 14.8279 31.952C14.7345 31.9448 14.6404 31.9392 14.547 31.9312C14.5094 31.9272 14.4709 31.9264 14.4325 31.9224H14.4184C14.1389 31.8934 13.8603 31.8565 13.5828 31.812C13.6228 31.8184 13.6636 31.8216 13.7036 31.8272C13.604 31.812 13.502 31.8032 13.4032 31.7872L13.2619 31.7615C13.2996 31.7679 13.3365 31.7783 13.3741 31.7847C13.3067 31.7735 13.2408 31.7575 13.1733 31.7455L13.1498 31.7415C13.1082 31.7343 13.0682 31.7239 13.0274 31.7167C12.7617 31.6684 12.4972 31.6135 12.2342 31.5519L12.3095 31.5671L12.1855 31.5383L12.2342 31.5519C12.1204 31.5247 12.0098 31.4903 11.8968 31.4599L11.9149 31.4647C11.9031 31.4623 11.8921 31.4583 11.8804 31.4551L11.8968 31.4599C11.6685 31.3999 11.4402 31.3399 11.2158 31.2702L11.1876 31.2622C11.157 31.2526 11.1272 31.2414 11.0966 31.231L11.0825 31.2262C10.9562 31.1854 10.8322 31.1382 10.7067 31.0942L10.8699 31.151C10.7836 31.1214 10.698 31.0902 10.6125 31.059L10.7067 31.0942C10.5145 31.027 10.3223 30.9598 10.134 30.8853L10.039 30.8477C10.0257 30.8421 10.0131 30.8357 9.9998 30.8309C9.87073 30.7779 9.74232 30.7232 9.61459 30.6669C9.69854 30.7037 9.78327 30.7381 9.86722 30.7733C9.74247 30.7213 9.61852 30.6661 9.49534 30.6117C9.53535 30.6293 9.57458 30.6493 9.61459 30.6669C9.48279 30.6093 9.34942 30.5533 9.21918 30.4917L9.19094 30.4797C9.17368 30.4717 9.15563 30.4645 9.13838 30.4557C9.0764 30.4268 9.01755 30.3916 8.95636 30.362C8.83083 30.2996 8.70531 30.2388 8.58135 30.174C8.68726 30.2292 8.79553 30.2804 8.90301 30.334C8.74911 30.2575 8.59636 30.1785 8.44484 30.0972C8.49113 30.122 8.53506 30.1492 8.58135 30.174C8.477 30.1188 8.37344 30.0644 8.27067 30.0076L8.23301 29.9875C8.19457 29.9667 8.15691 29.9435 8.11925 29.9219C8.06983 29.8947 8.02354 29.8635 7.9749 29.8347L7.93331 29.8107L7.9545 29.8227C7.78425 29.7235 7.61636 29.6227 7.45082 29.5178C7.50025 29.549 7.54732 29.5843 7.59753 29.6155C7.51672 29.5659 7.43827 29.513 7.35903 29.4626L7.35197 29.4578L7.23115 29.3802C7.16995 29.3402 7.1119 29.2962 7.05149 29.2554C6.92204 29.1682 6.78945 29.0857 6.66235 28.9945C6.75728 29.0625 6.85849 29.1226 6.95499 29.1882C6.78553 29.0729 6.6145 28.9601 6.44974 28.8377L6.48426 28.8641C6.47249 28.8561 6.46151 28.8465 6.44974 28.8377C6.29597 28.7225 6.14612 28.6024 5.99627 28.4824L5.98921 28.4768L5.98764 28.476C5.92174 28.4224 5.85427 28.3712 5.78837 28.3168L5.78759 28.316L5.76169 28.2936C5.57968 28.1415 5.39924 27.9863 5.22428 27.8263L5.21016 27.8143L5.19918 27.8039C5.13484 27.7454 5.07522 27.6838 5.01245 27.6238C4.8885 27.507 4.76454 27.3902 4.6445 27.2693L4.6296 27.2549C4.58017 27.2053 4.5331 27.1533 4.48446 27.1029C4.52368 27.1437 4.56056 27.1869 4.60057 27.2269C4.56056 27.1861 4.5229 27.1429 4.48289 27.1013L4.41855 27.0325C4.3095 26.9173 4.19967 26.8036 4.09375 26.6852L4.09218 26.6828C4.03177 26.6156 3.97293 26.5468 3.91409 26.4788L3.86859 26.4251C3.70883 26.2391 3.55293 26.0497 3.401 25.857C3.38531 25.8378 3.3704 25.817 3.3555 25.797C3.20791 25.6083 3.06456 25.4162 2.92557 25.2209C2.90831 25.1961 2.89262 25.1705 2.87536 25.1465C2.78719 25.0198 2.70062 24.8921 2.61567 24.7632C2.57252 24.6976 2.5278 24.6319 2.48544 24.5647C2.46582 24.5343 2.44856 24.5031 2.42973 24.4727C2.34986 24.3454 2.27192 24.2168 2.19594 24.087C2.18653 24.0694 2.17554 24.0526 2.16534 24.0358C2.13631 23.987 2.1065 23.939 2.07826 23.8894C2.05708 23.8526 2.03825 23.8142 2.01785 23.7765C1.94436 23.6437 1.87269 23.5098 1.80288 23.3749C1.76915 23.3116 1.73384 23.25 1.70168 23.186C1.68128 23.146 1.66323 23.1052 1.64362 23.0652C1.57409 22.9235 1.50713 22.7805 1.44278 22.6363C1.41689 22.5811 1.38943 22.5259 1.36432 22.4699L1.32353 22.373C1.25056 22.2066 1.18231 22.0378 1.11562 21.8681L1.0607 21.7329L1.03795 21.6697C0.960555 21.4652 0.887574 21.2589 0.819064 21.0511L0.79239 20.9743L0.784544 20.9495C0.590566 20.3551 0.431802 19.7493 0.309111 19.1355L0.302834 19.1035C0.290281 19.0403 0.281651 18.9763 0.269883 18.9139C0.235326 18.7325 0.203939 18.5506 0.175738 18.3681L0.16397 18.2977C0.151417 18.2081 0.143572 18.1169 0.132588 18.0265C0.110699 17.8625 0.0916058 17.6982 0.0753163 17.5335C0.0737472 17.5175 0.070609 17.5015 0.0698245 17.4847C0.0674708 17.4631 0.0682554 17.4407 0.0666863 17.4183C0.0234627 16.9467 0.00121108 16.4733 0 15.9996C0 15.794 0.00784544 15.5891 0.0156909 15.3851C0.0203982 15.269 0.0251054 15.153 0.0313818 15.037C0.0407963 14.8825 0.053349 14.7297 0.0666863 14.5769C0.0580563 14.6697 0.0462881 14.7625 0.0400118 14.8561C0.0462881 14.7617 0.0588408 14.6689 0.0666863 14.5745C0.0768854 14.4593 0.0870844 14.3448 0.0996372 14.2304C0.116897 14.0784 0.136511 13.9263 0.157693 13.7751C0.173384 13.6615 0.189075 13.5486 0.20712 13.4366V13.4358C0.231441 13.2862 0.2589 13.1374 0.287143 12.9893V12.9877C0.308326 12.8765 0.329509 12.7653 0.353045 12.6548V12.654C0.384984 12.5069 0.418985 12.3601 0.455036 12.2139C0.480926 12.1051 0.5076 11.9955 0.536628 11.8875V11.8859C0.575071 11.7418 0.615867 11.6002 0.658233 11.4586L0.659017 11.4554C0.690399 11.3482 0.721781 11.2401 0.755516 11.1345L0.756301 11.1321C0.80102 10.9921 0.848877 10.8536 0.897519 10.7152L0.899088 10.7112C0.935962 10.6064 0.972051 10.5016 1.01128 10.3975L1.01206 10.3951C1.06306 10.2583 1.11719 10.1239 1.17133 9.98945L1.17368 9.98385C1.21526 9.88142 1.25684 9.7782 1.29999 9.67658L1.30156 9.67418C1.36032 9.54004 1.42074 9.40667 1.48279 9.27409C1.52908 9.17406 1.57458 9.07324 1.62322 8.97482L1.62479 8.97162C1.68756 8.84279 1.75346 8.71636 1.82014 8.58993L1.82407 8.58193C1.87506 8.48511 1.92527 8.38669 1.97862 8.29066L1.98019 8.28746C2.04845 8.16344 2.12062 8.04101 2.19202 7.91858L2.19751 7.90978C2.25321 7.81536 2.30813 7.72014 2.3654 7.62652L2.36776 7.62332C2.4415 7.50329 2.51839 7.38566 2.59527 7.26803L2.60155 7.25763C2.66196 7.16641 2.7208 7.07439 2.78278 6.98397L2.78513 6.97997C2.86359 6.86474 2.94596 6.75192 3.02756 6.63829L3.03619 6.62709C3.10052 6.53827 3.16328 6.44945 3.22919 6.36223L3.23232 6.35823C3.31549 6.24781 3.40257 6.13978 3.48965 6.03096L3.49907 6.01895C3.56732 5.93334 3.63479 5.84772 3.70462 5.7637C3.70542 5.76218 3.70649 5.76083 3.70776 5.7597C3.79563 5.65407 3.88742 5.55005 3.97843 5.44683L3.99019 5.43402C4.06237 5.3516 4.13298 5.26919 4.20673 5.18837L4.21065 5.18517C4.30323 5.08354 4.39973 4.98512 4.49466 4.8867L4.50799 4.8731C4.58409 4.79468 4.65863 4.71546 4.73629 4.63864C4.73757 4.63751 4.73863 4.63616 4.73943 4.63464L4.76768 4.60584L4.741 4.63384C4.82495 4.55062 4.91203 4.47061 4.99755 4.38899C4.92694 4.4562 4.85398 4.52102 4.78415 4.58903C4.86653 4.50821 4.95283 4.4306 5.03678 4.35138L5.05168 4.33778C5.13171 4.26256 5.21016 4.18654 5.29097 4.11373L5.29489 4.11052C5.38198 4.03131 5.47298 3.95609 5.56242 3.87847C5.4871 3.94329 5.41022 4.0049 5.33647 4.07132C5.42434 3.9929 5.51535 3.91848 5.604 3.84246C5.6096 3.83747 5.61535 3.83266 5.62126 3.82806C5.70364 3.75765 5.78523 3.68563 5.86918 3.61681L5.8731 3.61361L5.9139 3.57921L5.87388 3.61281C5.96489 3.5384 6.05825 3.46718 6.15083 3.39516C6.07237 3.45678 5.99157 3.51599 5.9139 3.57921C6.00569 3.50399 6.1014 3.43277 6.19555 3.35996L6.21359 3.34555C6.29989 3.27914 6.38384 3.21192 6.47092 3.14711L6.47406 3.14471L6.51407 3.1143L6.47641 3.14311C6.57134 3.07269 6.66784 3.00628 6.76356 2.93826C6.68118 2.99747 6.59567 3.05349 6.51407 3.1143C6.61057 3.04228 6.71099 2.97507 6.80985 2.90625L6.83025 2.89185C6.91811 2.82944 7.0052 2.76622 7.09464 2.70621L7.09777 2.70381L7.13622 2.6774L7.1017 2.70141C7.19977 2.63579 7.30097 2.57418 7.39982 2.51016C7.31274 2.56618 7.22252 2.61979 7.13622 2.6774C7.23821 2.60939 7.34255 2.54617 7.44611 2.48056L7.46886 2.46695C7.55909 2.40934 7.64852 2.35013 7.74032 2.29492L7.74345 2.29332C7.75546 2.28512 7.76776 2.27737 7.78033 2.27011L7.74895 2.29012C7.85094 2.2285 7.95528 2.17089 8.05884 2.11168C7.96627 2.16449 7.87134 2.2149 7.78033 2.27011C7.88624 2.2061 7.99608 2.14688 8.10356 2.08607L8.12867 2.07167C8.22124 2.01965 8.31225 1.96524 8.40561 1.91403L8.40875 1.91243L8.44405 1.89323L8.41581 1.90923C8.52251 1.85162 8.63234 1.798 8.73983 1.74279C8.64176 1.7932 8.54134 1.84041 8.44405 1.89323C8.55546 1.83321 8.66922 1.7788 8.78141 1.72119C8.79078 1.71714 8.79995 1.7126 8.80887 1.70758C8.90301 1.66037 8.99559 1.61076 9.0913 1.56515L9.09366 1.56355L9.12739 1.54675L9.10307 1.55955C9.21526 1.50594 9.3298 1.45633 9.44356 1.40512C9.33843 1.45313 9.23174 1.49714 9.12739 1.54675C9.2435 1.49154 9.36197 1.44192 9.47965 1.38911L9.50946 1.37551C9.60439 1.3331 9.69854 1.28829 9.79504 1.24828L9.79739 1.24668C9.80799 1.24249 9.81846 1.23795 9.82877 1.23308L9.80838 1.24268C9.92763 1.19227 10.0492 1.14746 10.1701 1.10025C10.0563 1.14426 9.94175 1.18667 9.82877 1.23308C9.94959 1.18267 10.0736 1.13786 10.1959 1.08985L10.2297 1.07704C10.3254 1.03943 10.4195 1.00023 10.5168 0.964217H10.5184C10.5281 0.960003 10.5381 0.956264 10.5482 0.953014L10.5309 0.959416C10.6604 0.912205 10.793 0.870596 10.924 0.826586C10.7985 0.868996 10.6722 0.908204 10.5482 0.953014C10.6745 0.907404 10.8032 0.867395 10.9303 0.824185L10.9695 0.811383C11.0652 0.779375 11.1586 0.744968 11.2543 0.715361H11.2559L11.2833 0.706559L11.27 0.71136C11.4065 0.66895 11.5454 0.632142 11.6827 0.593733L11.6615 0.600135L11.7164 0.584131L11.7642 0.570528C11.8458 0.548123 11.9259 0.523318 12.0082 0.501713H12.009L12.0333 0.495311L12.0255 0.497712C12.1667 0.461704 12.3103 0.431297 12.4531 0.39929L12.4029 0.410492C12.475 0.393689 12.5464 0.376085 12.6194 0.360881L12.6884 0.344878C12.7183 0.338476 12.7473 0.330474 12.7763 0.324873L12.7771 0.324073L12.7983 0.320872L12.7951 0.321672C12.9426 0.291266 13.0925 0.26726 13.2423 0.241654L13.1623 0.255257C13.2957 0.232052 13.4275 0.204846 13.5609 0.184842L13.5616 0.184041L13.575 0.182441H13.5781C13.6974 0.164037 13.819 0.152034 13.939 0.136031C13.8582 0.146433 13.7758 0.156035 13.695 0.167238C13.8143 0.150434 13.9351 0.136031 14.0551 0.121627L13.939 0.136031C14.0779 0.118427 14.2159 0.097622 14.3564 0.0832187H14.3572L14.3736 0.0816184H14.3744C14.4929 0.0696157 14.6129 0.0632142 14.7322 0.0544122L14.6153 0.0632142C14.7141 0.0552124 14.8122 0.0472106 14.9111 0.0408092L14.7322 0.0544122C14.8757 0.0432097 15.0185 0.0288065 15.1629 0.0216049H15.1637L15.1817 0.0208047C15.301 0.0144032 15.4218 0.0144032 15.541 0.0112025L15.4744 0.0128029C15.6493 0.00720162 15.8235 0 16 0C24.8371 0 32 7.16241 32 15.9996C32 16.2677 31.9922 16.5341 31.9796 16.799C31.9749 16.887 31.9663 16.9742 31.9608 17.0614ZM6.71727 21.1175C6.83888 21.6537 7.37472 21.9897 7.91135 21.8665C13.48 20.5942 18.2093 21.1127 21.9657 23.4093C22.4364 23.6957 23.0507 23.5493 23.3378 23.0764C23.406 22.9647 23.4515 22.8403 23.4717 22.7104C23.4919 22.5806 23.4864 22.4479 23.4556 22.3202C23.4247 22.1925 23.3691 22.0725 23.292 21.9671C23.2149 21.8616 23.118 21.7731 23.0068 21.7065C18.7891 19.1283 13.5616 18.529 7.46651 19.9229C7.33983 19.95 7.21973 20.0027 7.11323 20.0777C7.00672 20.1528 6.91594 20.2487 6.84618 20.3599C6.77643 20.4711 6.72911 20.5954 6.70697 20.7255C6.68484 20.8556 6.68834 20.9889 6.71727 21.1175ZM6.07865 16.4357C6.27949 17.0942 6.97617 17.4655 7.63676 17.2663C12.7237 15.7227 19.2802 16.4877 23.5795 19.1315C24.1655 19.4908 24.9344 19.3075 25.2953 18.7218C25.3808 18.5822 25.4381 18.4266 25.4637 18.2641C25.4894 18.1017 25.483 17.9356 25.4448 17.7757C25.4067 17.6158 25.3376 17.4652 25.2416 17.333C25.1455 17.2007 25.0246 17.0893 24.8858 17.0054C19.9463 13.9719 12.723 13.1165 6.91105 14.8801C6.75574 14.9257 6.61083 15.0022 6.48472 15.1053C6.35861 15.2084 6.25381 15.336 6.17638 15.4806C6.09896 15.6253 6.05046 15.7842 6.03368 15.9482C6.0169 16.1121 6.03219 16.2778 6.07865 16.4357ZM26.9915 11.6098C21.054 8.08502 11.6591 7.75374 6.00726 9.47013C5.82085 9.52456 5.64692 9.61626 5.49558 9.73989C5.34424 9.86352 5.21852 10.0166 5.12572 10.1903C5.03293 10.3639 4.97492 10.5546 4.95507 10.7514C4.93522 10.9481 4.95393 11.1469 5.0101 11.3362C5.24939 12.1275 6.08493 12.5732 6.87653 12.3332C11.7996 10.8392 20.3064 11.1217 25.4647 14.184C25.8059 14.3871 26.2113 14.4459 26.5945 14.348C26.9776 14.25 27.3079 14.003 27.5148 13.6599C27.6149 13.4909 27.6809 13.3032 27.7088 13.1078C27.7366 12.9124 27.7259 12.7133 27.6771 12.5223C27.6283 12.3312 27.5425 12.152 27.4248 11.9953C27.307 11.8386 27.1597 11.7075 26.9915 11.6098ZM15.9576 0H16C15.8462 0 15.694 0.00720162 15.541 0.0112025C15.6799 0.00720162 15.818 0 15.9576 0Z" fill="white"/>
</svg>
