<svg width="25" height="24" viewBox="0 0 25 24" fill="none" xmlns="http://www.w3.org/2000/svg">
<path fill-rule="evenodd" clip-rule="evenodd" d="M24.0914 12.7961C24.0826 12.9287 24.0744 13.0607 24.0614 13.1916C24.0538 13.2696 24.0426 13.3464 24.0338 13.4232C24.0196 13.5414 24.0061 13.6591 23.989 13.7755C23.9767 13.8571 23.962 13.9381 23.9479 14.0192C23.929 14.1302 23.9108 14.2412 23.889 14.351C23.8725 14.4338 23.8537 14.5155 23.8355 14.5977C23.8119 14.7045 23.7884 14.8107 23.7619 14.9164C23.7413 14.9992 23.7184 15.0808 23.696 15.163C23.6678 15.2662 23.6395 15.3695 23.6083 15.4721C23.5532 15.655 23.4935 15.8365 23.4295 16.0164C23.3368 16.2754 23.2357 16.5312 23.1264 16.7834C23.0502 16.9563 22.971 17.1277 22.8887 17.2977C22.8417 17.3931 22.7928 17.4867 22.744 17.5804C22.7051 17.6536 22.6669 17.7262 22.6269 17.7988C22.5749 17.8921 22.5217 17.9847 22.4674 18.0767C22.4262 18.1463 22.3856 18.2159 22.3433 18.2849C22.2862 18.3779 22.2268 18.4692 22.1667 18.5604C22.1238 18.6258 22.082 18.6918 22.0379 18.756C21.9743 18.8496 21.9078 18.9409 21.8414 19.0327C21.7978 19.0927 21.756 19.1527 21.7113 19.2121C21.6384 19.3093 21.5625 19.4036 21.486 19.4984C21.4454 19.5494 21.4059 19.601 21.3647 19.6514C21.2712 19.7642 21.1741 19.8741 21.077 19.9839C21.0499 20.0133 21.0252 20.0445 20.9982 20.0739C20.8717 20.2125 20.7428 20.3482 20.6098 20.4808C20.5863 20.5048 20.5604 20.5276 20.5363 20.5516C20.428 20.6588 20.3178 20.7639 20.2056 20.8667C20.1579 20.9105 20.1085 20.9513 20.0608 20.9939C19.969 21.0749 19.8778 21.156 19.7837 21.234C19.7266 21.2814 19.6684 21.3264 19.6107 21.3726C19.5224 21.4428 19.4348 21.513 19.3447 21.5815C19.2818 21.6289 19.2176 21.6739 19.1541 21.7201L18.9546 21.8623C18.9735 21.8485 18.994 21.8371 19.0135 21.8239C18.9911 21.8395 18.9682 21.8527 18.9458 21.8683C18.927 21.8815 18.9087 21.8953 18.8899 21.9079C18.8222 21.9541 18.754 21.9986 18.6857 22.043C18.5696 22.1194 18.4521 22.1936 18.3333 22.2656L18.2921 22.2896C18.3009 22.2848 18.3103 22.28 18.3186 22.2746L18.1956 22.3472C18.1085 22.3988 18.0214 22.4493 17.9331 22.4985L17.8172 22.5609C17.7496 22.5975 17.6807 22.6335 17.6119 22.6689L17.576 22.6869C17.523 22.7139 17.4712 22.7415 17.4177 22.7679C17.3459 22.8027 17.2741 22.8375 17.2012 22.8717L17.1423 22.8982C17.0776 22.9282 17.0129 22.9576 16.9476 22.9864L16.9193 22.999C16.8622 23.0242 16.804 23.0482 16.7463 23.0728C16.6458 23.1152 16.5446 23.1558 16.4427 23.1946C16.3739 23.221 16.3056 23.2468 16.2368 23.272L16.1479 23.305C16.072 23.3321 15.9949 23.3579 15.9178 23.3831C15.8549 23.4041 15.7919 23.4251 15.7284 23.4449L15.7031 23.4527C15.6348 23.4743 15.5666 23.4947 15.4977 23.5145L15.3012 23.5709C15.2171 23.5937 15.1335 23.6171 15.0488 23.6387L15.0058 23.6483L14.8999 23.6747C14.9187 23.6705 14.9364 23.6645 14.9552 23.6603L14.8328 23.6885C14.8546 23.6831 14.8775 23.6801 14.8999 23.6747C14.8481 23.6873 14.7958 23.6969 14.744 23.7089L14.7363 23.7107C14.6522 23.7293 14.5686 23.7491 14.4839 23.7659C14.3962 23.7833 14.308 23.7984 14.2197 23.8134C14.1679 23.8224 14.1167 23.8338 14.065 23.8422C14.0891 23.838 14.1126 23.832 14.1367 23.8278L14.0091 23.8494C14.0279 23.8464 14.0467 23.8452 14.065 23.8422L13.9785 23.8548L13.909 23.8668C13.7919 23.8842 13.6737 23.8974 13.5554 23.9118C13.4789 23.9208 13.4024 23.9322 13.3247 23.9394L13.3071 23.9418H13.2959C13.2641 23.9448 13.2312 23.946 13.1994 23.949C13.1264 23.9556 13.0535 23.9598 12.9805 23.9652C12.7328 23.9832 12.4833 23.9946 12.2315 23.997C12.2091 23.997 12.1879 24 12.1662 24H12.0761C12.0549 24 12.0349 23.9976 12.0138 23.997C11.7562 23.9942 11.4987 23.9832 11.2418 23.964C11.1717 23.9586 11.1011 23.9544 11.0311 23.9484C11.0029 23.9454 10.974 23.9448 10.9452 23.9418H10.9346C10.725 23.92 10.5161 23.8924 10.308 23.859C10.338 23.8638 10.3686 23.8662 10.3986 23.8704C10.3239 23.859 10.2474 23.8524 10.1732 23.8404L10.0673 23.8212C10.0955 23.826 10.1232 23.8338 10.1514 23.8386C10.1008 23.8302 10.0514 23.8182 10.0008 23.8092L9.98316 23.8062C9.95198 23.8008 9.92197 23.793 9.89137 23.7876C9.69212 23.7513 9.49376 23.7101 9.29649 23.6639L9.35298 23.6753L9.26001 23.6537L9.29649 23.6639C9.21117 23.6435 9.12821 23.6177 9.04348 23.5949L9.05701 23.5985C9.04818 23.5967 9.03994 23.5937 9.03112 23.5913L9.04348 23.5949C8.87225 23.5499 8.70102 23.5049 8.53274 23.4527L8.51155 23.4467C8.48861 23.4395 8.46625 23.4311 8.4433 23.4233L8.43271 23.4197C8.33797 23.3891 8.245 23.3537 8.15086 23.3206L8.27325 23.3633C8.20852 23.3411 8.14439 23.3176 8.08025 23.2942L8.15086 23.3206C8.0067 23.2702 7.86254 23.2198 7.72132 23.164L7.65012 23.1358C7.64012 23.1316 7.63071 23.1268 7.6207 23.1232C7.5239 23.0834 7.42759 23.0424 7.33179 23.0002C7.39475 23.0278 7.4583 23.0536 7.52126 23.08C7.42771 23.041 7.33474 22.9996 7.24236 22.9588C7.27237 22.972 7.30179 22.987 7.33179 23.0002C7.23294 22.957 7.13291 22.915 7.03524 22.8687L7.01405 22.8597C7.00111 22.8537 6.98758 22.8483 6.97463 22.8417C6.92815 22.8201 6.88402 22.7937 6.83812 22.7715C6.74397 22.7247 6.64983 22.6791 6.55686 22.6305C6.6363 22.6719 6.7175 22.7103 6.79811 22.7505C6.68268 22.6931 6.56812 22.6339 6.45448 22.5729C6.48919 22.5915 6.52214 22.6119 6.55686 22.6305C6.4786 22.5891 6.40093 22.5483 6.32385 22.5057L6.29561 22.4907C6.26678 22.4751 6.23853 22.4577 6.21029 22.4415C6.17322 22.421 6.1385 22.3976 6.10202 22.376L6.07084 22.358L6.08672 22.367C5.95904 22.2926 5.83312 22.217 5.70896 22.1384C5.74603 22.1618 5.78134 22.1882 5.819 22.2116C5.75839 22.1744 5.69955 22.1348 5.64012 22.097L5.63482 22.0934L5.54421 22.0352C5.49831 22.0052 5.45477 21.9721 5.40946 21.9415C5.31238 21.8761 5.21294 21.8143 5.11761 21.7459C5.18881 21.7969 5.26472 21.8419 5.33709 21.8911C5.20999 21.8047 5.08172 21.7201 4.95816 21.6283L4.98405 21.6481C4.97522 21.6421 4.96698 21.6349 4.95816 21.6283C4.84283 21.5418 4.73044 21.4518 4.61805 21.3618L4.61276 21.3576L4.61158 21.357C4.56216 21.3168 4.51155 21.2784 4.46213 21.2376L4.46154 21.237L4.44212 21.2202C4.30561 21.1061 4.17028 20.9897 4.03906 20.8697L4.02847 20.8607L4.02023 20.8529C3.97198 20.8091 3.92726 20.7629 3.88019 20.7179C3.78722 20.6302 3.69425 20.5426 3.60423 20.452L3.59305 20.4412C3.55598 20.404 3.52067 20.365 3.48419 20.3272C3.51361 20.3578 3.54127 20.3902 3.57128 20.4202C3.54127 20.3896 3.51302 20.3572 3.48302 20.326L3.43477 20.2744C3.35298 20.1879 3.2706 20.1027 3.19116 20.0139L3.18999 20.0121C3.14468 19.9617 3.10055 19.9101 3.05642 19.8591L3.02229 19.8189C2.90247 19.6794 2.78555 19.5373 2.6716 19.3928C2.65983 19.3784 2.64865 19.3628 2.63747 19.3478C2.52678 19.2062 2.41927 19.0622 2.31502 18.9157C2.30208 18.8971 2.29031 18.8778 2.27737 18.8598C2.21124 18.7649 2.14631 18.669 2.0826 18.5724C2.05024 18.5232 2.0167 18.474 1.98493 18.4235C1.97022 18.4007 1.95727 18.3773 1.94315 18.3545C1.88325 18.259 1.82479 18.1626 1.7678 18.0653C1.76074 18.0521 1.75251 18.0395 1.74486 18.0269C1.72309 17.9902 1.70073 17.9542 1.67954 17.917C1.66366 17.8894 1.64953 17.8606 1.63424 17.8324C1.57912 17.7328 1.52537 17.6323 1.47301 17.5311C1.44771 17.4837 1.42123 17.4375 1.39711 17.3895C1.38181 17.3595 1.36828 17.3289 1.35357 17.2989C1.30141 17.1926 1.25119 17.0854 1.20293 16.9772C1.18352 16.9358 1.16292 16.8944 1.14409 16.8524L1.11349 16.7798C1.05877 16.6549 1.00758 16.5283 0.957566 16.4011L0.916378 16.2997L0.899314 16.2523C0.841266 16.0989 0.78653 15.9442 0.735148 15.7884L0.715142 15.7307L0.709258 15.7121C0.563774 15.2663 0.444701 14.812 0.352683 14.3516L0.347975 14.3276C0.338561 14.2802 0.332088 14.2322 0.323262 14.1854C0.297344 14.0494 0.273804 13.9129 0.252653 13.7761L0.243827 13.7233C0.234412 13.6561 0.228528 13.5877 0.220291 13.5198C0.203874 13.3969 0.189554 13.2736 0.177337 13.1502C0.17616 13.1382 0.173806 13.1262 0.173218 13.1136C0.171453 13.0973 0.172041 13.0805 0.170864 13.0637C0.138447 12.71 0.121758 12.355 0.12085 11.9997C0.12085 11.8455 0.126734 11.6918 0.132618 11.5388C0.136148 11.4518 0.139679 11.3648 0.144386 11.2777C0.151447 11.1619 0.160861 11.0473 0.170864 10.9327C0.164392 11.0023 0.155566 11.0719 0.150858 11.1421C0.155566 11.0713 0.16498 11.0017 0.170864 10.9309C0.178514 10.8444 0.186163 10.7586 0.195577 10.6728C0.208522 10.5588 0.223233 10.4448 0.23912 10.3313C0.250888 10.2461 0.262656 10.1615 0.276189 10.0775V10.0769C0.29443 9.96464 0.315024 9.85302 0.336207 9.74199V9.74079C0.352094 9.65737 0.367981 9.57395 0.385633 9.49114V9.49054C0.409588 9.38014 0.435088 9.27011 0.462126 9.16046C0.481544 9.07884 0.50155 8.99662 0.523321 8.91561V8.91441C0.552153 8.80638 0.58275 8.70016 0.614524 8.59393L0.615113 8.59153C0.638649 8.51111 0.662185 8.4301 0.687487 8.35088L0.688075 8.34908C0.721615 8.24405 0.757508 8.14023 0.793989 8.03641L0.795166 8.03341C0.822821 7.95479 0.849888 7.87617 0.879308 7.79815L0.879896 7.79635C0.918143 7.69373 0.958743 7.59291 0.999343 7.49208L1.00111 7.48788C1.03229 7.41107 1.06348 7.33365 1.09584 7.25743L1.09702 7.25563C1.14109 7.15503 1.1864 7.055 1.23294 6.95556C1.26766 6.88055 1.30179 6.80493 1.33827 6.73111L1.33944 6.72871C1.38652 6.63209 1.43594 6.53727 1.48596 6.44245L1.4889 6.43645C1.52715 6.36383 1.5648 6.29002 1.60482 6.218L1.60599 6.2156C1.65718 6.12258 1.71132 6.03076 1.76486 5.93894L1.76898 5.93233C1.81076 5.86152 1.85195 5.7901 1.8949 5.71989L1.89667 5.71749C1.95198 5.62747 2.00964 5.53925 2.0673 5.45103L2.07201 5.44322C2.11732 5.37481 2.16145 5.30579 2.20793 5.23798L2.2097 5.23498C2.26854 5.14856 2.33032 5.06394 2.39152 4.97872L2.39799 4.97032C2.44624 4.9037 2.49331 4.83709 2.54274 4.77167L2.54509 4.76867C2.60746 4.68585 2.67278 4.60484 2.73809 4.52322L2.74515 4.51422C2.79634 4.45 2.84695 4.38579 2.89931 4.32277C2.89992 4.32164 2.90071 4.32062 2.90167 4.31977C2.96757 4.24055 3.03641 4.16254 3.10467 4.08512L3.11349 4.07552C3.16763 4.0137 3.22058 3.95189 3.2759 3.89128L3.27884 3.88887C3.34827 3.81266 3.42064 3.73884 3.49184 3.66502L3.50184 3.65482C3.55892 3.59601 3.61482 3.5366 3.67307 3.47898C3.67402 3.47813 3.67482 3.47712 3.67542 3.47598L3.69661 3.45438L3.6766 3.47538C3.73956 3.41297 3.80487 3.35295 3.86901 3.29174C3.81605 3.34215 3.76133 3.39076 3.70896 3.44177C3.77075 3.38116 3.83547 3.32295 3.89843 3.26353L3.90961 3.25333C3.96963 3.19692 4.02847 3.13991 4.08908 3.08529L4.09202 3.08289C4.15733 3.02348 4.22559 2.96707 4.29267 2.90885C4.23618 2.95747 4.17851 3.00368 4.1232 3.05349C4.18911 2.99467 4.25736 2.93886 4.32385 2.88185C4.32805 2.8781 4.33236 2.8745 4.3368 2.87105C4.39858 2.81823 4.45977 2.76422 4.52273 2.71261L4.52567 2.71021L4.55627 2.6844L4.52626 2.70961C4.59452 2.6538 4.66454 2.60038 4.73397 2.54637C4.67513 2.59258 4.61452 2.63699 4.55627 2.6844C4.62512 2.62799 4.6969 2.57458 4.76751 2.51997L4.78104 2.50916C4.84577 2.45935 4.90873 2.40894 4.97404 2.36033L4.9764 2.35853L5.0064 2.33573L4.97816 2.35733C5.04936 2.30452 5.12173 2.25471 5.19352 2.2037C5.13174 2.24811 5.0676 2.29012 5.0064 2.33573C5.07878 2.28171 5.1541 2.2313 5.22823 2.17969L5.24353 2.16889C5.30943 2.12208 5.37475 2.07467 5.44183 2.02966L5.44418 2.02786L5.47301 2.00805L5.44712 2.02606C5.52067 1.97684 5.59658 1.93063 5.67072 1.88262C5.6054 1.92463 5.53774 1.96484 5.47301 2.00805C5.54951 1.95704 5.62776 1.90963 5.70543 1.86042L5.7225 1.85022C5.79016 1.80701 5.85724 1.7626 5.92609 1.72119L5.92844 1.71999C5.93744 1.71384 5.94667 1.70803 5.9561 1.70258L5.93256 1.71759C6.00905 1.67138 6.08731 1.62817 6.16498 1.58376C6.09555 1.62337 6.02435 1.66117 5.9561 1.70258C6.03553 1.65457 6.11791 1.61016 6.19852 1.56455L6.21735 1.55375C6.28678 1.51474 6.35504 1.47393 6.42506 1.43552L6.42741 1.43432L6.45389 1.41992L6.43271 1.43192C6.51273 1.38871 6.59511 1.3485 6.67572 1.30709C6.60217 1.3449 6.52685 1.38031 6.45389 1.41992C6.53744 1.37491 6.62276 1.3341 6.7069 1.29089C6.71394 1.28785 6.72081 1.28445 6.7275 1.28069C6.79811 1.24528 6.86754 1.20807 6.93933 1.17386L6.94109 1.17266L6.96639 1.16006L6.94815 1.16966C7.03229 1.12945 7.1182 1.09225 7.20352 1.05384C7.12468 1.08985 7.04465 1.12285 6.96639 1.16006C7.05348 1.11865 7.14233 1.08144 7.23059 1.04183L7.25295 1.03163C7.32414 0.999825 7.39475 0.966217 7.46713 0.936211L7.46889 0.93501C7.47684 0.931865 7.48469 0.928462 7.49243 0.924808L7.47713 0.93201C7.56657 0.894201 7.65777 0.860594 7.74839 0.825186C7.66307 0.858193 7.57716 0.89 7.49243 0.924808C7.58305 0.886999 7.67601 0.853392 7.76781 0.817384L7.79311 0.807782C7.86489 0.779575 7.9355 0.750169 8.00846 0.723163H8.00964C8.01696 0.720002 8.02442 0.717198 8.032 0.714761L8.01906 0.719562C8.11614 0.684154 8.21558 0.652947 8.31385 0.61994C8.2197 0.651747 8.12497 0.681153 8.032 0.714761C8.12673 0.680553 8.22323 0.650546 8.31855 0.618139L8.34798 0.608537C8.41976 0.584532 8.48978 0.558726 8.56157 0.536521H8.56274L8.58334 0.529919L8.57334 0.53352C8.67572 0.501713 8.77987 0.474107 8.88284 0.4453L8.86695 0.450101L8.90814 0.438099L8.94403 0.427896C9.00523 0.411092 9.06525 0.392488 9.12703 0.376285H9.12762L9.14586 0.371484L9.13997 0.373284C9.24589 0.346278 9.35357 0.323473 9.46066 0.299467L9.423 0.307869C9.47713 0.295266 9.53068 0.282063 9.5854 0.270661L9.63718 0.258658C9.65954 0.253857 9.68131 0.247856 9.70308 0.243655L9.70367 0.243055L9.71955 0.240654L9.7172 0.241254C9.82782 0.218449 9.94021 0.200445 10.0526 0.181241L9.99258 0.191443C10.0926 0.174039 10.1915 0.153635 10.2915 0.138631L10.2921 0.138031L10.3021 0.136831H10.3044C10.3939 0.123028 10.4851 0.114026 10.5751 0.102023C10.5145 0.109825 10.4527 0.117026 10.3921 0.125428C10.4815 0.112825 10.5722 0.102023 10.6622 0.0912205L10.5751 0.102023C10.6792 0.08882 10.7828 0.0732165 10.8881 0.062414H10.8887L10.9011 0.0612138H10.9017C10.9905 0.0522117 11.0805 0.0474107 11.17 0.0408092L11.0823 0.0474107C11.1564 0.0414093 11.23 0.035408 11.3041 0.0306069L11.17 0.0408092C11.2777 0.0324073 11.3848 0.0216049 11.493 0.0162036H11.4936L11.5071 0.0156035C11.5966 0.0108024 11.6872 0.0108024 11.7766 0.00840189L11.7266 0.00960216C11.8578 0.00540122 11.9885 0 12.1209 0C18.7487 0 24.1208 5.37181 24.1208 11.9997C24.1208 12.2007 24.115 12.4006 24.1056 12.5992C24.102 12.6652 24.0955 12.7307 24.0914 12.7961ZM5.1588 15.8382C5.25001 16.2403 5.65189 16.4923 6.05436 16.3999C10.2309 15.4457 13.7778 15.8346 16.5951 17.5569C16.9482 17.7718 17.4089 17.662 17.6242 17.3073C17.6753 17.2236 17.7095 17.1302 17.7246 17.0328C17.7398 16.9354 17.7357 16.8359 17.7125 16.7402C17.6894 16.6444 17.6477 16.5543 17.5899 16.4753C17.5321 16.3962 17.4593 16.3298 17.3759 16.2799C14.2126 14.3462 10.2921 13.8967 5.72073 14.9422C5.62572 14.9625 5.53565 15.002 5.45577 15.0583C5.37589 15.1146 5.3078 15.1865 5.25549 15.2699C5.20317 15.3534 5.16768 15.4466 5.15108 15.5441C5.13448 15.6417 5.1371 15.7416 5.1588 15.8382ZM4.67984 12.3268C4.83047 12.8207 5.35298 13.0991 5.84842 12.9497C9.66366 11.7921 14.581 12.3658 17.8055 14.3486C18.245 14.6181 18.8216 14.4807 19.0923 14.0414C19.1564 13.9367 19.1994 13.82 19.2187 13.6981C19.2379 13.5762 19.2331 13.4517 19.2045 13.3318C19.1759 13.2118 19.124 13.0989 19.052 12.9997C18.98 12.9005 18.8893 12.817 18.7852 12.7541C15.0805 10.479 9.66307 9.83741 5.30414 11.1601C5.18765 11.1943 5.07897 11.2517 4.98439 11.329C4.88981 11.4063 4.8112 11.502 4.75314 11.6105C4.69507 11.719 4.65869 11.8382 4.64611 11.9611C4.63353 12.0841 4.64499 12.2084 4.67984 12.3268ZM20.3645 8.70736C15.9114 6.06376 8.86519 5.81531 4.62629 7.1026C4.48649 7.14342 4.35604 7.2122 4.24253 7.30492C4.12903 7.39764 4.03474 7.51246 3.96514 7.6427C3.89555 7.77293 3.85204 7.91598 3.83715 8.06352C3.82227 8.21106 3.8363 8.36015 3.87843 8.50211C4.05789 9.09565 4.68455 9.42992 5.27825 9.24988C8.97051 8.12943 15.3506 8.34128 19.2194 10.638C19.4752 10.7903 19.7794 10.8344 20.0667 10.761C20.354 10.6875 20.6018 10.5023 20.7569 10.2449C20.832 10.1182 20.8815 9.9774 20.9024 9.83086C20.9233 9.68432 20.9153 9.535 20.8787 9.39169C20.8421 9.24839 20.7778 9.114 20.6894 8.99647C20.6011 8.87894 20.4906 8.78063 20.3645 8.70736ZM12.0891 0H12.1209C12.0055 0 11.8914 0.00540122 11.7766 0.00840189C11.8808 0.00540122 11.9843 0 12.0891 0Z" fill="#1ED760"/>
</svg>
