<svg width="18" height="24" viewBox="0 0 18 24" fill="none" xmlns="http://www.w3.org/2000/svg">
<mask id="path-1-inside-1_45_302" fill="white">
<path fill-rule="evenodd" clip-rule="evenodd" d="M14.9861 16.5941C16.8354 14.8542 18 12.3206 18 9.5C18 4.25329 13.9706 0 9 0C4.02944 0 0 4.25329 0 9.5C0 12.3206 1.16457 14.8542 3.01386 16.5941L9 24L14.9861 16.5941Z"/>
</mask>
<path d="M14.9861 16.5941L13.6157 15.1374L13.5164 15.2308L13.4307 15.3368L14.9861 16.5941ZM3.01386 16.5941L4.56928 15.3368L4.4836 15.2308L4.38434 15.1374L3.01386 16.5941ZM9 24L7.44457 25.2572L9 27.1816L10.5554 25.2572L9 24ZM16 9.5C16 11.7646 15.0665 13.7724 13.6157 15.1374L16.3566 18.0507C18.6044 15.9359 20 12.8767 20 9.5H16ZM9 2C12.7655 2 16 5.2546 16 9.5H20C20 3.25199 15.1756 -2 9 -2V2ZM2 9.5C2 5.2546 5.23452 2 9 2V-2C2.82436 -2 -2 3.25199 -2 9.5H2ZM4.38434 15.1374C2.9335 13.7724 2 11.7646 2 9.5H-2C-2 12.8767 -0.60437 15.9359 1.64338 18.0507L4.38434 15.1374ZM10.5554 22.7428L4.56928 15.3368L1.45843 17.8513L7.44457 25.2572L10.5554 22.7428ZM13.4307 15.3368L7.44457 22.7428L10.5554 25.2572L16.5416 17.8513L13.4307 15.3368Z" fill="white" mask="url(#path-1-inside-1_45_302)"/>
<circle cx="9" cy="9" r="3" stroke="white" stroke-width="2"/>
</svg>
