<svg width="34" height="34" viewBox="0 0 34 34" fill="none" xmlns="http://www.w3.org/2000/svg">
<path d="M22.2461 23.7405H12.0012C11.8146 23.7405 11.6278 23.7168 11.4513 23.6563C10.3631 23.2835 9.83934 22.6718 10.31 21.4847C10.6875 20.5324 11.7124 20.0096 12.5724 19.7035C13.0562 19.5312 13.5788 19.6167 13.9824 19.9342C14.6319 20.4452 15.5623 21.1279 17.0086 21.1279C18.6716 21.1279 19.5043 20.4166 20.1454 19.8192C20.3853 19.5956 20.7218 19.5065 21.0352 19.6031C21.78 19.8327 22.9859 20.338 23.6937 21.4847C24.42 22.6617 23.5189 23.3793 22.7501 23.6628C22.5893 23.7221 22.4174 23.7405 22.2461 23.7405Z" fill="white"/>
<circle cx="17" cy="17" r="15.5" stroke="white" stroke-width="2"/>
<path d="M20.9473 14.1736C20.9473 16.3405 19.1906 19.7972 17.0237 19.7972C14.8567 19.7972 13.1001 16.3405 13.1001 14.1736C13.1001 12.0066 14.8567 10.25 17.0237 10.25C19.1906 10.25 20.9473 12.0066 20.9473 14.1736Z" fill="white"/>
</svg>
