<svg width="359" height="227" viewBox="0 0 359 227" fill="none" xmlns="http://www.w3.org/2000/svg">
<rect x="0.482422" y="0.485352" width="358" height="226" rx="7" fill="#222222"/>
<path d="M23.8448 15.3012H26.2388V23.6712H23.8448V15.3012ZM18.2828 15.9312H20.8928C20.8928 20.3592 18.3368 22.9512 13.2788 24.0492L12.4868 22.1232C16.6628 21.2952 18.2828 19.4592 18.2828 17.2272V15.9312ZM13.4408 15.9312H19.2908V17.8392H13.4408V15.9312ZM20.2448 17.3712H24.1508V19.1892H20.2448V17.3712ZM20.1368 20.6112H24.0608V22.4112H20.1368V20.6112ZM15.2228 24.2832H26.2388V28.8732H17.6528V30.9432H15.2588V27.1092H23.8448V26.1552H15.2228V24.2832ZM15.2588 29.9352H26.5808V31.8072H15.2588V29.9352ZM40.8894 15.3012H43.1574V31.9692H40.8894V15.3012ZM35.3994 20.9892H38.1534V22.9332H35.3994V20.9892ZM37.5234 15.5712H39.7554V31.2132H37.5234V15.5712ZM31.7994 18.0192H33.5994V19.7292C33.5994 23.4732 32.5734 27.1992 29.9274 28.8552L28.5054 27.0912C30.9534 25.5612 31.7994 22.5732 31.7994 19.7292V18.0192ZM32.3394 18.0192H34.1214V19.7292C34.1214 22.5012 34.9494 25.3092 37.3614 26.7132L35.9574 28.4592C33.3114 26.8932 32.3394 23.4012 32.3394 19.7292V18.0192ZM29.1354 16.9752H36.5694V18.9012H29.1354V16.9752Z" fill="white"/>
<rect x="11.1274" y="63.3672" width="30" height="30" rx="4" fill="#323232"/>
<path d="M23.1932 76.1003H29.0117M23.1932 79.4873H29.0117M20.0908 71.73V85.0044L22.0577 83.9669L24.1336 85.0044L26.1549 83.9669L28.2854 85.0044L30.3613 83.9669L32.1641 85.0044V71.73H20.0908Z" stroke="#A5A5A5" stroke-width="1.5"/>
<path d="M59.3074 72.3122H60.3874V72.8822C60.3874 75.3122 57.8074 77.0972 55.0774 77.5622L54.5974 76.5722C56.9824 76.2272 59.3074 74.6672 59.3074 72.8822V72.3122ZM59.6224 72.3122H60.6874V72.8822C60.6874 74.6672 63.0274 76.2272 65.3974 76.5722L64.9324 77.5622C62.1874 77.0972 59.6224 75.3122 59.6224 72.8822V72.3122ZM59.3524 79.3622H60.5824V84.5372H59.3524V79.3622ZM53.8774 78.7022H66.1324V79.7222H53.8774V78.7022ZM55.0174 71.8172H64.9474V72.8222H55.0174V71.8172ZM67.6613 77.9072H79.9463V78.9272H67.6613V77.9072ZM73.2713 78.5372H74.5163V81.6572H73.2713V78.5372ZM69.2363 71.6072H78.3563V76.3772H69.2363V71.6072ZM77.1263 72.6122H70.4513V75.3722H77.1263V72.6122ZM69.2213 83.2172H78.5813V84.2372H69.2213V83.2172ZM69.2213 80.3522H70.4513V83.5772H69.2213V80.3522ZM95.9838 70.9772H97.1838V84.5372H95.9838V70.9772ZM93.7038 76.4972H96.3138V77.5172H93.7038V76.4972ZM92.9088 71.2772H94.0788V83.8472H92.9088V71.2772ZM86.3388 72.6122H87.5838V80.4422H86.3388V72.6122ZM86.3388 79.9472H87.2088C88.6038 79.9472 90.1638 79.8572 91.9338 79.5122L92.0688 80.5922C90.2238 80.9522 88.6638 81.0272 87.2088 81.0272H86.3388V79.9472ZM105.658 72.9722H109.798V73.9922H105.658V72.9722ZM105.658 76.0022H109.798V77.0372H105.658V76.0022ZM101.593 79.7222H110.638V84.5372H109.393V80.7272H101.593V79.7222ZM109.393 70.9772H110.638V78.9722H109.393V70.9772ZM103.183 71.7272C105.178 71.7272 106.678 73.0772 106.678 74.9972C106.678 76.9172 105.178 78.2522 103.183 78.2522C101.173 78.2522 99.6877 76.9172 99.6877 74.9972C99.6877 73.0772 101.173 71.7272 103.183 71.7272ZM103.183 72.7922C101.863 72.7922 100.888 73.7072 100.888 74.9972C100.888 76.2872 101.863 77.1872 103.183 77.1872C104.503 77.1872 105.493 76.2872 105.493 74.9972C105.493 73.7072 104.503 72.7922 103.183 72.7922Z" fill="white"/>
<path d="M337.33 71.6743L343.925 78.3345L337.33 85.06" stroke="#A5A5A5" stroke-width="1.5" stroke-linecap="round"/>
<rect x="11.1274" y="116.367" width="30" height="30" rx="4" fill="#323232"/>
<path d="M19.1796 129.312H32.8985" stroke="#A7A7A7" stroke-width="1.43899"/>
<path d="M22.1566 133.603H25.4551" stroke="#A7A7A7" stroke-width="1.43899"/>
<rect x="19.3152" y="125.916" width="13.8924" height="11.1704" rx="1.43899" stroke="#A7A7A7" stroke-width="1.43899"/>
<path d="M63.7924 123.962H65.0224V137.552H63.7924V123.962ZM60.8674 128.912H64.1524V129.932H60.8674V128.912ZM57.3124 125.912H58.3174V127.937C58.3174 130.862 56.6374 133.757 54.4924 134.867L53.7574 133.877C55.7074 132.917 57.3124 130.352 57.3124 127.937V125.912ZM57.5674 125.912H58.5574V127.937C58.5574 130.202 60.1324 132.677 62.0974 133.607L61.3624 134.582C59.2174 133.517 57.5674 130.727 57.5674 127.937V125.912ZM54.2524 125.357H61.6324V126.392H54.2524V125.357ZM71.0063 125.432H72.0263V126.527C72.0263 129.017 70.5263 131.102 68.2463 131.927L67.6163 130.937C69.6563 130.217 71.0063 128.462 71.0063 126.527V125.432ZM71.2313 125.432H72.2513V126.512C72.2513 128.282 73.5413 129.872 75.5363 130.532L74.9363 131.507C72.6713 130.757 71.2313 128.822 71.2313 126.512V125.432ZM67.9913 124.982H75.2363V126.002H67.9913V124.982ZM76.9463 123.977H78.1913V132.152H76.9463V123.977ZM77.8463 127.412H80.2013V128.462H77.8463V127.412ZM73.8713 132.512C76.6313 132.512 78.3263 133.427 78.3263 135.002C78.3263 136.592 76.6313 137.507 73.8713 137.507C71.1113 137.507 69.4163 136.592 69.4163 135.002C69.4163 133.427 71.1113 132.512 73.8713 132.512ZM73.8713 133.517C71.8613 133.517 70.6313 134.057 70.6313 135.002C70.6313 135.962 71.8613 136.532 73.8713 136.532C75.8813 136.532 77.1113 135.962 77.1113 135.002C77.1113 134.057 75.8813 133.517 73.8713 133.517ZM82.7351 128.402H89.2751V129.422H82.7351V128.402ZM85.3451 129.017H86.5901V131.732H85.3451V129.017ZM82.7351 124.862H89.1851V125.882H83.9801V128.852H82.7351V124.862ZM91.3151 123.977H92.5601V134.117H91.3151V123.977ZM83.8001 136.217H93.0101V137.237H83.8001V136.217ZM83.8001 133.457H85.0301V136.652H83.8001V133.457ZM81.7001 132.407L81.5351 131.387C84.1451 131.387 87.4451 131.327 90.2351 130.997L90.3101 131.912C87.4451 132.332 84.2351 132.407 81.7001 132.407ZM109.393 123.977H110.638V130.892H109.393V123.977ZM105.103 124.637H106.453C106.453 128.057 104.098 130.247 100.138 131.207L99.7027 130.187C103.213 129.377 105.103 127.592 105.103 125.252V124.637ZM100.408 124.637H105.673V125.657H100.408V124.637ZM105.973 125.927H109.603V126.917H105.973V125.927ZM105.853 128.522H109.528V129.497H105.853V128.522ZM101.908 131.522H110.638V134.852H103.183V137.012H101.953V133.892H109.408V132.527H101.908V131.522ZM101.953 136.412H111.088V137.402H101.953V136.412ZM123.597 123.977H124.797V137.537H123.597V123.977ZM118.662 128.837H121.257V129.872H118.662V128.837ZM120.882 124.292H122.052V136.847H120.882V124.292ZM116.052 126.077H117.012V127.802C117.012 130.772 115.872 133.577 113.877 134.837L113.112 133.907C115.002 132.767 116.052 130.292 116.052 127.802V126.077ZM116.307 126.077H117.267V127.802C117.267 130.157 118.287 132.512 120.147 133.592L119.382 134.507C117.402 133.307 116.307 130.637 116.307 127.802V126.077ZM113.487 125.552H119.682V126.587H113.487V125.552ZM137.069 125.387H138.284C138.284 129.302 136.964 132.902 132.104 135.317L131.429 134.357C135.719 132.242 137.069 129.212 137.069 125.522V125.387ZM132.164 125.387H137.804V126.392H132.164V125.387ZM136.874 128.747V129.707L131.684 130.217L131.489 129.107L136.874 128.747ZM140.474 123.962H141.734V137.537H140.474V123.962ZM141.389 129.467H143.894V130.502H141.389V129.467ZM146.653 130.472H155.968V131.492H146.653V130.472ZM145.108 134.672H157.393V135.707H145.108V134.672ZM146.653 125.222H155.833V126.257H147.898V130.922H146.653V125.222Z" fill="white"/>
<path d="M337.33 124.674L343.925 131.335L337.33 138.06" stroke="#A5A5A5" stroke-width="1.5" stroke-linecap="round"/>
<rect x="11.1274" y="169.367" width="30" height="30" rx="4" fill="#323232"/>
<path d="M33.1274 179.394L31.0397 177.367L26.8733 177.447L19.1274 184.889L25.597 191.367L32.9684 183.787L33.1274 179.394Z" stroke="#A5A5A5" stroke-width="1.5"/>
<circle cx="30.1274" cy="180.367" r="1" fill="#A5A5A5"/>
<path d="M57.1924 178.147H58.2124V180.577C58.2124 183.577 56.5924 186.502 54.4474 187.642L53.6824 186.652C55.6474 185.662 57.1924 183.052 57.1924 180.577V178.147ZM57.4174 178.147H58.4224V180.577C58.4224 182.962 59.9374 185.437 61.8574 186.397L61.0924 187.387C58.9924 186.262 57.4174 183.487 57.4174 180.577V178.147ZM63.0424 176.977H64.3024V190.537H63.0424V176.977ZM64.0024 182.467H66.5224V183.517H64.0024V182.467ZM70.6913 181.567H71.9213V184.132H70.6913V181.567ZM75.6713 181.567H76.9013V184.132H75.6713V181.567ZM67.6613 183.682H79.9163V184.687H67.6613V183.682ZM73.7813 185.707C76.6913 185.707 78.4313 186.562 78.4313 188.107C78.4313 189.652 76.6913 190.522 73.7813 190.522C70.8713 190.522 69.1313 189.652 69.1313 188.107C69.1313 186.562 70.8713 185.707 73.7813 185.707ZM73.7813 186.667C71.6663 186.667 70.3913 187.192 70.3913 188.107C70.3913 189.037 71.6663 189.547 73.7813 189.547C75.9113 189.547 77.1713 189.037 77.1713 188.107C77.1713 187.192 75.9113 186.667 73.7813 186.667ZM73.7963 177.217C76.7363 177.217 78.5663 178.162 78.5663 179.752C78.5663 181.327 76.7363 182.257 73.7963 182.257C70.8413 182.257 69.0263 181.327 69.0263 179.752C69.0263 178.162 70.8413 177.217 73.7963 177.217ZM73.7963 178.192C71.6363 178.192 70.3013 178.762 70.3013 179.752C70.3013 180.727 71.6363 181.297 73.7963 181.297C75.9563 181.297 77.2913 180.727 77.2913 179.752C77.2913 178.762 75.9563 178.192 73.7963 178.192ZM90.6551 176.977H91.9001V190.537H90.6551V176.977ZM91.6001 182.542H94.1201V183.592H91.6001V182.542ZM81.4001 179.137H89.3951V180.157H81.4001V179.137ZM85.4501 181.282C87.3701 181.282 88.7501 182.572 88.7501 184.402C88.7501 186.232 87.3701 187.522 85.4501 187.522C83.5451 187.522 82.1501 186.232 82.1501 184.402C82.1501 182.572 83.5451 181.282 85.4501 181.282ZM85.4501 182.317C84.2201 182.317 83.3351 183.172 83.3351 184.402C83.3351 185.617 84.2201 186.487 85.4501 186.487C86.6801 186.487 87.5651 185.617 87.5651 184.402C87.5651 183.172 86.6801 182.317 85.4501 182.317ZM84.8051 177.142H86.0501V179.602H84.8051V177.142ZM105.144 176.977H106.389V190.537H105.144V176.977ZM101.169 178.432H102.399C102.399 182.362 100.629 185.797 96.0989 188.017L95.4389 187.012C99.3539 185.122 101.169 182.242 101.169 178.642V178.432ZM96.0539 178.432H101.709V179.452H96.0539V178.432Z" fill="white"/>
<path d="M337.33 177.674L343.925 184.335L337.33 191.06" stroke="#A5A5A5" stroke-width="1.5" stroke-linecap="round"/>
</svg>
