<svg width="48" height="48" viewBox="0 0 48 48" fill="none" xmlns="http://www.w3.org/2000/svg">
<path fill-rule="evenodd" clip-rule="evenodd" d="M30.5699 21.5309C30.6071 21.5309 30.6442 21.5497 30.6814 21.5872C30.7186 21.621 30.7186 21.666 30.7186 21.7148C30.7186 23.0178 30.7186 30.8843 30.7186 32.1873C30.7186 32.2886 30.6442 32.3713 30.5699 32.3713C29.0451 32.3713 18.7806 32.3713 17.2558 32.3713C17.2186 32.3713 17.1814 32.3525 17.1442 32.3187C17.1071 32.2849 17.1071 32.2361 17.1071 32.1873C17.1071 30.8843 17.1071 23.0178 17.1071 21.7148C17.1071 21.6134 17.1814 21.5309 17.2558 21.5309C17.7765 21.5309 19.1153 21.5309 19.5616 21.5309C19.636 21.5309 19.6732 21.4708 19.6732 21.3995C19.6732 21.009 19.6732 19.8637 19.6732 19.4732C19.6732 19.4018 19.636 19.3418 19.5616 19.3418H16.2145C15.8798 19.3418 15.5451 19.4769 15.2847 19.721C15.0616 19.9613 14.9128 20.2918 14.9128 20.6335C14.9128 22.1354 14.9128 31.7667 14.9128 33.2687C14.9128 33.6142 15.0616 33.9408 15.2847 34.1849C15.5451 34.4252 15.8798 34.5641 16.2145 34.5641C17.888 34.5641 29.9376 34.5641 31.6112 34.5641C31.9459 34.5641 32.2806 34.4252 32.5409 34.1849C32.7641 33.9408 32.9128 33.6142 32.9128 33.2687C32.9128 31.7667 32.9128 22.1354 32.9128 20.6335C32.9128 20.2918 32.7641 19.9613 32.5409 19.721C32.2806 19.4769 31.9459 19.3418 31.6112 19.3418C31.6112 19.3418 28.8963 19.3418 28.2641 19.3418C28.2269 19.3418 28.1897 19.3568 28.1897 19.3793C28.1525 19.4056 28.1525 19.4394 28.1525 19.4732C28.1525 19.8637 28.1525 21.009 28.1525 21.3995C28.1525 21.4333 28.1525 21.4671 28.1897 21.4933C28.1897 21.5159 28.2269 21.5309 28.2641 21.5309C28.7104 21.5309 30.0492 21.5309 30.5699 21.5309ZM23.9128 12.5641C23.95 12.5641 23.9872 12.5792 24.0244 12.6017C24.6195 13.225 28.1153 16.7321 28.1153 16.7321C28.5244 17.1602 28.5244 17.8548 28.1153 18.2829C27.7062 18.6621 27.1484 18.7034 26.7021 18.4105V18.3917L26.6649 18.388C26.6277 18.3542 26.5905 18.3204 26.5533 18.2829L25.1401 16.8598C25.1401 16.8335 25.1029 16.826 25.0657 16.841C25.0285 16.856 24.9914 16.8898 24.9914 16.9273C24.9914 18.1214 24.9914 23.4609 24.9914 23.4609C24.9914 24.0654 24.5079 24.5573 23.9128 24.5573C23.3178 24.5573 22.8343 24.0692 22.8343 23.4647C22.8343 23.4647 22.8343 18.1327 22.8343 16.9424C22.8343 16.9048 22.7971 16.8672 22.7599 16.8522C22.7228 16.8372 22.6856 16.8485 22.6484 16.8748L21.2723 18.2829C21.2352 18.3204 21.198 18.3542 21.1608 18.388L21.1236 18.4068V18.4105C20.6773 18.7034 20.1195 18.6621 19.7476 18.2829C19.3013 17.8548 19.3013 17.1602 19.7476 16.7321C19.7476 16.7321 23.2062 13.225 23.8385 12.6017C23.8385 12.5792 23.8757 12.5641 23.9128 12.5641Z" fill="#A9A9A9"/>
</svg>
