<svg width="30" height="30" viewBox="0 0 30 30" fill="none" xmlns="http://www.w3.org/2000/svg">
<rect width="30" height="30" rx="4" fill="#323232"/>
<path fill-rule="evenodd" clip-rule="evenodd" d="M22.7802 15.5174C22.7745 15.6036 22.7691 15.6894 22.7607 15.7745C22.7557 15.8252 22.7485 15.8751 22.7427 15.925C22.7335 16.0019 22.7247 16.0783 22.7137 16.154C22.7056 16.207 22.6961 16.2597 22.6869 16.3123C22.6746 16.3845 22.6628 16.4567 22.6486 16.528C22.6379 16.5819 22.6257 16.6349 22.6138 16.6883C22.5985 16.7578 22.5832 16.8268 22.566 16.8955C22.5526 16.9493 22.5377 17.0023 22.5232 17.0558C22.5048 17.1229 22.4865 17.19 22.4662 17.2567C22.4304 17.3755 22.3916 17.4935 22.35 17.6104C22.2897 17.7788 22.224 17.945 22.153 18.1089C22.1035 18.2213 22.052 18.3327 21.9985 18.4432C21.9679 18.5052 21.9362 18.5661 21.9044 18.6269C21.8792 18.6745 21.8543 18.7217 21.8283 18.7689C21.7945 18.8295 21.76 18.8897 21.7247 18.9495C21.6979 18.9947 21.6715 19.04 21.644 19.0848C21.6069 19.1453 21.5683 19.2046 21.5293 19.2639C21.5013 19.3064 21.4742 19.3493 21.4455 19.391C21.4042 19.4519 21.361 19.5112 21.3178 19.5708C21.2895 19.6098 21.2623 19.6489 21.2333 19.6875C21.1858 19.7507 21.1365 19.8119 21.0868 19.8735C21.0604 19.9067 21.0348 19.9402 21.008 19.973C20.9472 20.0463 20.8841 20.1177 20.821 20.1891C20.8034 20.2082 20.7873 20.2285 20.7698 20.2476C20.6875 20.3377 20.6038 20.4258 20.5173 20.512C20.502 20.5276 20.4852 20.5425 20.4695 20.5581C20.3992 20.6277 20.3275 20.696 20.2546 20.7628C20.2236 20.7913 20.1915 20.8178 20.1605 20.8455C20.1009 20.8982 20.0416 20.9509 19.9804 21.0016C19.9433 21.0324 19.9055 21.0616 19.868 21.0917C19.8106 21.1373 19.7536 21.1829 19.6951 21.2274C19.6542 21.2582 19.6125 21.2875 19.5712 21.3175L19.4416 21.4099C19.4538 21.401 19.4672 21.3936 19.4798 21.385C19.4653 21.3951 19.4504 21.4037 19.4358 21.4138C19.4236 21.4224 19.4117 21.4314 19.3995 21.4396C19.3555 21.4696 19.3112 21.4985 19.2668 21.5274C19.1913 21.577 19.1149 21.6252 19.0377 21.6721L19.0109 21.6877C19.0167 21.6845 19.0228 21.6814 19.0282 21.6779L18.9482 21.7251C18.8916 21.7587 18.835 21.7914 18.7777 21.8234L18.7023 21.864C18.6583 21.8878 18.6136 21.9112 18.5689 21.9342L18.5455 21.9459C18.5111 21.9634 18.4775 21.9814 18.4427 21.9985C18.396 22.0212 18.3493 22.0438 18.3019 22.066L18.2637 22.0832C18.2216 22.1027 18.1795 22.1218 18.1371 22.1405L18.1187 22.1487C18.0816 22.1651 18.0438 22.1807 18.0063 22.1967C17.941 22.2243 17.8752 22.2507 17.809 22.2759C17.7642 22.293 17.7199 22.3098 17.6751 22.3262L17.6174 22.3476C17.568 22.3652 17.5179 22.382 17.4678 22.3983C17.4269 22.412 17.386 22.4256 17.3447 22.4385L17.3282 22.4436C17.2839 22.4576 17.2395 22.4709 17.1948 22.4838L17.067 22.5204C17.0124 22.5352 16.9581 22.5505 16.903 22.5645L16.8751 22.5707L16.8062 22.5879C16.8185 22.5852 16.8299 22.5813 16.8422 22.5785L16.7626 22.5969C16.7768 22.5934 16.7917 22.5914 16.8062 22.5879C16.7726 22.5961 16.7385 22.6023 16.7049 22.6101L16.6999 22.6113C16.6452 22.6234 16.5909 22.6363 16.5358 22.6472C16.4789 22.6585 16.4215 22.6683 16.3641 22.678C16.3305 22.6839 16.2972 22.6913 16.2636 22.6967C16.2792 22.694 16.2945 22.6901 16.3102 22.6874L16.2272 22.7014C16.2395 22.6995 16.2517 22.6987 16.2636 22.6967L16.2073 22.7049L16.1622 22.7127C16.0861 22.724 16.0092 22.7326 15.9324 22.742C15.8827 22.7478 15.8329 22.7552 15.7825 22.7599L15.771 22.7615H15.7637C15.7431 22.7634 15.7217 22.7642 15.701 22.7662C15.6536 22.7705 15.6062 22.7732 15.5587 22.7767C15.3977 22.7884 15.2356 22.7958 15.0719 22.7974C15.0574 22.7974 15.0436 22.7993 15.0294 22.7993H14.9709C14.9572 22.7993 14.9442 22.7978 14.9304 22.7974C14.763 22.7955 14.5956 22.7884 14.4286 22.7759C14.3831 22.7724 14.3372 22.7697 14.2917 22.7658C14.2734 22.7638 14.2546 22.7634 14.2359 22.7615H14.229C14.0928 22.7473 13.957 22.7294 13.8217 22.7077C13.8412 22.7108 13.8611 22.7123 13.8806 22.7151C13.8321 22.7077 13.7823 22.7034 13.7342 22.6956L13.6653 22.6831C13.6837 22.6862 13.7016 22.6913 13.72 22.6944C13.6871 22.6889 13.655 22.6811 13.6221 22.6753L13.6106 22.6733C13.5904 22.6698 13.5709 22.6647 13.551 22.6612C13.4215 22.6377 13.2925 22.6109 13.1643 22.5809L13.201 22.5883L13.1406 22.5743L13.1643 22.5809C13.1089 22.5676 13.055 22.5509 12.9999 22.536L13.0087 22.5384C13.0029 22.5372 12.9976 22.5352 12.9919 22.5337L12.9999 22.536C12.8886 22.5068 12.7773 22.4775 12.6679 22.4436L12.6542 22.4397C12.6392 22.435 12.6247 22.4295 12.6098 22.4245L12.6029 22.4221C12.5413 22.4022 12.4809 22.3792 12.4197 22.3578L12.4993 22.3855C12.4572 22.371 12.4155 22.3558 12.3738 22.3406L12.4197 22.3578C12.326 22.325 12.2323 22.2922 12.1406 22.256L12.0943 22.2376C12.0878 22.2349 12.0817 22.2318 12.0752 22.2294C12.0122 22.2036 11.9496 22.1769 11.8874 22.1495C11.9283 22.1674 11.9696 22.1842 12.0105 22.2014C11.9497 22.176 11.8893 22.1491 11.8293 22.1226C11.8488 22.1312 11.8679 22.1409 11.8874 22.1495C11.8231 22.1214 11.7581 22.0941 11.6946 22.0641L11.6809 22.0582C11.6725 22.0543 11.6637 22.0508 11.6553 22.0465C11.625 22.0325 11.5964 22.0153 11.5665 22.0009C11.5053 21.9705 11.4441 21.9408 11.3837 21.9092C11.4354 21.9361 11.4881 21.9611 11.5405 21.9872C11.4655 21.9499 11.391 21.9114 11.3172 21.8718C11.3397 21.8839 11.3612 21.8971 11.3837 21.9092C11.3329 21.8823 11.2824 21.8558 11.2323 21.8281L11.2139 21.8183C11.1952 21.8082 11.1768 21.7969 11.1585 21.7863C11.1344 21.7731 11.1118 21.7579 11.0881 21.7438L11.0678 21.7321L11.0782 21.738C10.9952 21.6896 10.9133 21.6405 10.8326 21.5894C10.8567 21.6046 10.8797 21.6217 10.9042 21.637C10.8648 21.6128 10.8265 21.587 10.7879 21.5625L10.7845 21.5601L10.7256 21.5223C10.6957 21.5028 10.6674 21.4813 10.638 21.4614C10.5749 21.4189 10.5102 21.3787 10.4483 21.3343C10.4946 21.3674 10.5439 21.3967 10.5909 21.4287C10.5083 21.3725 10.425 21.3175 10.3447 21.2578L10.3615 21.2707C10.3557 21.2668 10.3504 21.2621 10.3447 21.2578C10.2697 21.2017 10.1967 21.1431 10.1236 21.0846L10.1202 21.0819L10.1194 21.0815C10.0873 21.0554 10.0544 21.0304 10.0223 21.0039L10.0219 21.0035L10.0093 20.9926C9.92054 20.9185 9.83258 20.8428 9.7473 20.7648L9.74041 20.7589L9.73506 20.7539C9.7037 20.7254 9.67464 20.6954 9.64404 20.6661C9.58362 20.6092 9.52319 20.5522 9.46468 20.4933L9.45741 20.4863C9.43332 20.4621 9.41038 20.4368 9.38666 20.4122C9.40579 20.4321 9.42376 20.4531 9.44326 20.4726C9.42376 20.4528 9.4054 20.4317 9.3859 20.4114L9.35454 20.3779C9.30138 20.3217 9.24784 20.2663 9.19621 20.2086L9.19545 20.2074C9.166 20.1746 9.13732 20.1411 9.10864 20.1079L9.08646 20.0818C9.00858 19.9911 8.93259 19.8988 8.85853 19.8049C8.85088 19.7955 8.84361 19.7854 8.83634 19.7756C8.7644 19.6836 8.69453 19.59 8.62677 19.4948C8.61836 19.4827 8.61071 19.4702 8.6023 19.4585C8.55932 19.3968 8.51712 19.3345 8.47571 19.2717C8.45468 19.2397 8.43288 19.2077 8.41223 19.1749C8.40267 19.1601 8.39425 19.1449 8.38508 19.1301C8.34614 19.068 8.30815 19.0053 8.27111 18.9421C8.26652 18.9335 8.26117 18.9253 8.2562 18.9171C8.24205 18.8933 8.22751 18.8699 8.21375 18.8457C8.20342 18.8278 8.19424 18.8091 8.1843 18.7907C8.14847 18.726 8.11354 18.6607 8.07951 18.5949C8.06307 18.5641 8.04586 18.5341 8.03018 18.5029C8.02024 18.4834 8.01144 18.4635 8.00188 18.444C7.96798 18.3749 7.93534 18.3052 7.90398 18.2349C7.89136 18.208 7.87797 18.1811 7.86573 18.1538L7.84585 18.1066C7.81028 18.0255 7.77701 17.9431 7.7445 17.8605L7.71773 17.7945L7.70664 17.7637C7.66891 17.664 7.63334 17.5635 7.59994 17.4622L7.58694 17.4248L7.58312 17.4127C7.48856 17.1229 7.41117 16.8276 7.35136 16.5284L7.3483 16.5128C7.34218 16.482 7.33798 16.4508 7.33224 16.4204C7.3154 16.332 7.3001 16.2433 7.28635 16.1544L7.28061 16.12C7.27449 16.0764 7.27067 16.0319 7.26531 15.9878C7.25464 15.9079 7.24534 15.8278 7.2374 15.7475C7.23663 15.7397 7.2351 15.7319 7.23472 15.7237C7.23357 15.7132 7.23396 15.7023 7.23319 15.6914C7.21212 15.4615 7.20127 15.2307 7.20068 14.9998C7.20068 14.8996 7.20451 14.7997 7.20833 14.7002C7.21063 14.6437 7.21292 14.5871 7.21598 14.5306C7.22057 14.4553 7.22669 14.3808 7.23319 14.3063C7.22898 14.3515 7.22325 14.3968 7.22019 14.4424C7.22325 14.3964 7.22937 14.3511 7.23319 14.3051C7.23816 14.249 7.24313 14.1932 7.24925 14.1374C7.25767 14.0633 7.26723 13.9892 7.27755 13.9155C7.2852 13.8601 7.29285 13.8051 7.30165 13.7505V13.7501C7.3135 13.6771 7.32689 13.6046 7.34065 13.5324V13.5316C7.35098 13.4774 7.3613 13.4232 7.37278 13.3694V13.369C7.38835 13.2972 7.40492 13.2257 7.42249 13.1545C7.43511 13.1014 7.44812 13.048 7.46227 12.9953V12.9945C7.48101 12.9243 7.50089 12.8553 7.52154 12.7863L7.52193 12.7847C7.53722 12.7324 7.55252 12.6798 7.56897 12.6283L7.56935 12.6271C7.59115 12.5588 7.61447 12.4914 7.63819 12.4239L7.63895 12.4219C7.65692 12.3708 7.67452 12.3197 7.69364 12.269L7.69402 12.2679C7.71888 12.2012 7.74527 12.1356 7.77165 12.0701L7.7728 12.0674C7.79307 12.0175 7.81334 11.9671 7.83437 11.9176L7.83514 11.9164C7.86378 11.851 7.89323 11.786 7.92348 11.7214C7.94604 11.6726 7.96822 11.6235 7.99194 11.5755L7.9927 11.574C8.02329 11.5112 8.05542 11.4495 8.08793 11.3879L8.08984 11.384C8.1147 11.3368 8.13917 11.2888 8.16518 11.242L8.16594 11.2405C8.19921 11.18 8.2344 11.1203 8.2692 11.0607L8.27188 11.0564C8.29903 11.0103 8.3258 10.9639 8.35372 10.9183L8.35486 10.9167C8.39081 10.8582 8.42829 10.8009 8.46577 10.7435L8.46883 10.7385C8.49828 10.694 8.52696 10.6491 8.55717 10.6051L8.55832 10.6031C8.59656 10.547 8.63672 10.492 8.67649 10.4366L8.6807 10.4311C8.71205 10.3878 8.74265 10.3445 8.77477 10.302L8.7763 10.3C8.81684 10.2462 8.85929 10.1936 8.90174 10.1405L8.90633 10.1347C8.9396 10.0929 8.97249 10.0512 9.00653 10.0102C9.00692 10.0095 9.00744 10.0088 9.00806 10.0083C9.05089 9.9568 9.09563 9.9061 9.14 9.85578L9.14573 9.84954C9.18092 9.80936 9.21533 9.76919 9.25128 9.72979L9.2532 9.72823C9.29832 9.67869 9.34536 9.63072 9.39164 9.58274L9.39814 9.57611C9.43523 9.53788 9.47156 9.49927 9.50942 9.46182C9.51005 9.46127 9.51056 9.46061 9.51095 9.45987L9.52472 9.44583L9.51172 9.45948C9.55264 9.41892 9.59509 9.37991 9.63677 9.34013C9.60236 9.37289 9.56679 9.40449 9.53275 9.43764C9.57291 9.39825 9.61498 9.36041 9.6559 9.32179L9.66316 9.31516C9.70217 9.2785 9.74041 9.24144 9.7798 9.20595L9.78172 9.20439C9.82417 9.16577 9.86853 9.12911 9.91213 9.09127C9.87541 9.12287 9.83793 9.1529 9.80199 9.18528C9.84482 9.14705 9.88918 9.11078 9.93239 9.07372C9.93512 9.07129 9.93793 9.06894 9.94081 9.0667C9.98096 9.03238 10.0207 8.99727 10.0617 8.96373L10.0636 8.96217L10.0835 8.94539L10.064 8.96178C10.1083 8.9255 10.1538 8.89079 10.1989 8.85568C10.1607 8.88572 10.1213 8.91458 10.0835 8.94539C10.1282 8.90873 10.1749 8.87401 10.2207 8.83852L10.2295 8.8315C10.2716 8.79912 10.3125 8.76636 10.355 8.73476L10.3565 8.73359L10.376 8.71877L10.3577 8.73281C10.4039 8.69849 10.451 8.66611 10.4976 8.63296C10.4575 8.66182 10.4158 8.68913 10.376 8.71877C10.4231 8.68367 10.472 8.6509 10.5202 8.61736L10.5301 8.61034C10.573 8.57991 10.6154 8.5491 10.659 8.51984L10.6605 8.51867L10.6793 8.5058L10.6625 8.5175C10.7103 8.48552 10.7596 8.45549 10.8078 8.42428C10.7653 8.45159 10.7214 8.47772 10.6793 8.5058C10.729 8.47265 10.7799 8.44183 10.8303 8.40985L10.8414 8.40322C10.8854 8.37513 10.929 8.34627 10.9738 8.31936L10.9753 8.31858C10.9811 8.31458 10.9871 8.31081 10.9933 8.30727L10.978 8.31702C11.0277 8.28698 11.0785 8.2589 11.129 8.23004C11.0839 8.25578 11.0376 8.28035 10.9933 8.30727C11.0449 8.27606 11.0984 8.2472 11.1508 8.21755L11.1631 8.21053C11.2082 8.18518 11.2526 8.15866 11.2981 8.13369L11.2996 8.13291L11.3168 8.12355L11.303 8.13135C11.355 8.10327 11.4086 8.07713 11.461 8.05022C11.4132 8.07479 11.3642 8.09781 11.3168 8.12355C11.3711 8.0943 11.4266 8.06777 11.4812 8.03969C11.4858 8.03771 11.4903 8.0355 11.4946 8.03306C11.5405 8.01004 11.5856 7.98586 11.6323 7.96363L11.6335 7.96285L11.6499 7.95466L11.638 7.9609C11.6927 7.93476 11.7486 7.91058 11.804 7.88562C11.7528 7.90902 11.7008 7.93047 11.6499 7.95466C11.7065 7.92774 11.7642 7.90356 11.8216 7.87782L11.8361 7.87119C11.8824 7.85051 11.9283 7.82867 11.9753 7.80917L11.9765 7.80839C11.9817 7.80634 11.9868 7.80413 11.9918 7.80176L11.9818 7.80644C12.04 7.78186 12.0993 7.76002 12.1581 7.73701C12.1027 7.75846 12.0469 7.77913 11.9918 7.80176C12.0507 7.77718 12.1111 7.75534 12.1708 7.73194L12.1872 7.7257C12.2339 7.70736 12.2798 7.68825 12.3272 7.6707H12.3279C12.3327 7.66864 12.3376 7.66682 12.3425 7.66524L12.3341 7.66836C12.3972 7.64534 12.4618 7.62506 12.5257 7.60361C12.4645 7.62428 12.4029 7.64339 12.3425 7.66524C12.4041 7.643 12.4668 7.6235 12.5287 7.60244L12.5478 7.5962C12.5945 7.5806 12.64 7.56382 12.6867 7.54939H12.6874L12.7008 7.5451L12.6943 7.54744C12.7609 7.52677 12.8286 7.50883 12.8955 7.4901L12.8852 7.49322L12.9119 7.48542L12.9353 7.47879C12.975 7.46787 13.014 7.45578 13.0542 7.44525H13.0546L13.0664 7.44213L13.0626 7.4433C13.1314 7.42574 13.2014 7.41092 13.271 7.39532L13.2466 7.40078C13.2817 7.39259 13.3165 7.38401 13.3521 7.3766L13.3858 7.3688C13.4003 7.36568 13.4144 7.36178 13.4286 7.35905L13.429 7.35866L13.4393 7.3571L13.4378 7.35749C13.5097 7.34266 13.5827 7.33096 13.6558 7.31848L13.6167 7.32511C13.6818 7.3138 13.746 7.30054 13.811 7.29079L13.8114 7.2904L13.8179 7.28962H13.8194C13.8776 7.28064 13.9368 7.27479 13.9954 7.26699C13.956 7.27206 13.9158 7.27674 13.8764 7.2822C13.9345 7.27401 13.9934 7.26699 14.052 7.25997L13.9954 7.26699C14.063 7.25841 14.1303 7.24827 14.1988 7.24125H14.1992L14.2072 7.24047H14.2076C14.2653 7.23462 14.3239 7.2315 14.382 7.22721L14.325 7.2315C14.3732 7.2276 14.421 7.2237 14.4692 7.22058L14.382 7.22721C14.452 7.22175 14.5216 7.21473 14.5919 7.21122H14.5923L14.6011 7.21082C14.6593 7.2077 14.7181 7.2077 14.7763 7.20614L14.7438 7.20692C14.8291 7.20419 14.914 7.20068 15 7.20068C19.3077 7.20068 22.7993 10.6921 22.7993 14.9998C22.7993 15.1305 22.7955 15.2604 22.7894 15.3895C22.7871 15.4324 22.7829 15.4749 22.7802 15.5174ZM10.4751 17.4946C10.5343 17.7559 10.7955 17.9197 11.0571 17.8597C13.7716 17.2395 16.0769 17.4922 17.908 18.6117C18.1375 18.7513 18.4369 18.68 18.5769 18.4494C18.6101 18.395 18.6323 18.3344 18.6421 18.2711C18.652 18.2078 18.6493 18.1431 18.6343 18.0808C18.6192 18.0186 18.5921 17.9601 18.5546 17.9087C18.517 17.8573 18.4697 17.8141 18.4155 17.7817C16.3595 16.5249 13.8114 16.2328 10.8403 16.9122C10.7785 16.9255 10.72 16.9511 10.6681 16.9877C10.6162 17.0243 10.5719 17.0711 10.5379 17.1253C10.5039 17.1795 10.4808 17.2401 10.47 17.3035C10.4593 17.3669 10.461 17.4319 10.4751 17.4946ZM10.1638 15.2124C10.2617 15.5334 10.6013 15.7144 10.9233 15.6173C13.403 14.8648 16.5989 15.2377 18.6947 16.5265C18.9804 16.7016 19.3551 16.6123 19.5311 16.3268C19.5727 16.2587 19.6007 16.1829 19.6132 16.1037C19.6257 16.0245 19.6226 15.9435 19.604 15.8656C19.5854 15.7876 19.5517 15.7142 19.5049 15.6498C19.4581 15.5853 19.3991 15.531 19.3314 15.4901C16.9236 14.0114 13.4026 13.5944 10.5695 14.4541C10.4938 14.4763 10.4232 14.5136 10.3617 14.5639C10.3002 14.6141 10.2491 14.6763 10.2114 14.7468C10.1737 14.8174 10.15 14.8948 10.1418 14.9747C10.1337 15.0547 10.1411 15.1354 10.1638 15.2124ZM20.3579 12.86C17.4636 11.1418 12.884 10.9803 10.129 11.817C10.0381 11.8435 9.95331 11.8882 9.87954 11.9485C9.80577 12.0087 9.74449 12.0834 9.69925 12.168C9.65402 12.2526 9.62575 12.3456 9.61607 12.4415C9.60639 12.5374 9.61551 12.6343 9.64289 12.7266C9.75954 13.1123 10.1668 13.3296 10.5527 13.2126C12.9525 12.4843 17.0992 12.622 19.6137 14.1148C19.7799 14.2138 19.9776 14.2425 20.1643 14.1947C20.3511 14.147 20.5121 14.0266 20.613 13.8593C20.6618 13.7769 20.6939 13.6854 20.7075 13.5902C20.7211 13.4949 20.7159 13.3979 20.6921 13.3047C20.6683 13.2116 20.6265 13.1243 20.5691 13.0479C20.5117 12.9715 20.4399 12.9076 20.3579 12.86ZM14.9793 7.20068H15C14.925 7.20068 14.8509 7.20419 14.7763 7.20614C14.844 7.20419 14.9113 7.20068 14.9793 7.20068Z" fill="#A7A7A7"/>
</svg>
