<svg width="28" height="28" viewBox="0 0 28 28" fill="none" xmlns="http://www.w3.org/2000/svg">
<path fill-rule="evenodd" clip-rule="evenodd" d="M27.9657 14.9288C27.9554 15.0835 27.9458 15.2375 27.9307 15.3902C27.9217 15.4812 27.9087 15.5708 27.8984 15.6604C27.8819 15.7984 27.8661 15.9356 27.8462 16.0714C27.8318 16.1666 27.8147 16.2612 27.7982 16.3557C27.7762 16.4852 27.7549 16.6147 27.7295 16.7429C27.7103 16.8395 27.6883 16.9347 27.6671 17.0306C27.6396 17.1553 27.6121 17.2792 27.5812 17.4024C27.5572 17.499 27.5304 17.5943 27.5044 17.6902C27.4714 17.8106 27.4385 17.931 27.4021 18.0508C27.3377 18.2642 27.2681 18.4759 27.1934 18.6858C27.0852 18.988 26.9673 19.2864 26.8399 19.5806C26.751 19.7823 26.6585 19.9823 26.5625 20.1806C26.5076 20.292 26.4506 20.4012 26.3936 20.5104C26.3483 20.5958 26.3037 20.6806 26.257 20.7653C26.1963 20.8741 26.1343 20.9822 26.071 21.0894C26.0229 21.1707 25.9756 21.2519 25.9262 21.3324C25.8596 21.4409 25.7902 21.5473 25.7202 21.6538C25.6701 21.7301 25.6214 21.8071 25.5699 21.882C25.4957 21.9912 25.4182 22.0977 25.3406 22.2048C25.2898 22.2748 25.2411 22.3448 25.1889 22.4141C25.1038 22.5276 25.0152 22.6375 24.926 22.7481C24.8786 22.8076 24.8326 22.8678 24.7845 22.9267C24.6754 23.0583 24.5621 23.1864 24.4489 23.3145C24.4173 23.3489 24.3884 23.3853 24.3569 23.4196C24.2093 23.5813 24.0589 23.7395 23.9038 23.8943C23.8763 23.9223 23.8461 23.9489 23.818 23.9769C23.6917 24.1019 23.5631 24.2245 23.4322 24.3445C23.3766 24.3956 23.3189 24.4432 23.2633 24.4929C23.1562 24.5874 23.0498 24.682 22.94 24.773C22.8734 24.8283 22.8054 24.8808 22.7382 24.9347C22.6352 25.0166 22.5329 25.0985 22.4279 25.1784C22.3544 25.2337 22.2796 25.2862 22.2055 25.3401L21.9727 25.506C21.9947 25.4899 22.0187 25.4766 22.0414 25.4612C22.0153 25.4794 21.9885 25.4948 21.9624 25.513C21.9405 25.5284 21.9192 25.5445 21.8972 25.5593C21.8183 25.6132 21.7386 25.665 21.659 25.7168C21.5235 25.8059 21.3864 25.8925 21.2478 25.9765L21.1998 26.0046C21.2101 25.999 21.221 25.9933 21.2307 25.987L21.0872 26.0718C20.9856 26.132 20.884 26.1908 20.781 26.2482L20.6458 26.321C20.5668 26.3637 20.4865 26.4057 20.4062 26.4471L20.3643 26.4681C20.3025 26.4996 20.2421 26.5318 20.1797 26.5626C20.0959 26.6032 20.0122 26.6438 19.927 26.6837L19.8584 26.7145C19.7829 26.7495 19.7074 26.7838 19.6312 26.8174L19.5982 26.8321C19.5316 26.8615 19.4637 26.8896 19.3964 26.9183C19.2791 26.9677 19.1611 27.0151 19.0422 27.0604C18.9619 27.0912 18.8822 27.1213 18.8019 27.1507L18.6982 27.1892C18.6097 27.2207 18.5198 27.2508 18.4298 27.2802C18.3564 27.3047 18.2829 27.3293 18.2088 27.3524L18.1793 27.3615C18.0996 27.3867 18.02 27.4105 17.9397 27.4336L17.7104 27.4994C17.6122 27.526 17.5148 27.5533 17.4159 27.5785L17.3658 27.5897L17.2422 27.6205C17.2642 27.6156 17.2848 27.6086 17.3068 27.6037L17.164 27.6366C17.1894 27.6303 17.2161 27.6268 17.2422 27.6205C17.1818 27.6352 17.1207 27.6464 17.0603 27.6604L17.0514 27.6625C16.9532 27.6842 16.8557 27.7073 16.7569 27.7269C16.6546 27.7472 16.5516 27.7647 16.4487 27.7823C16.3883 27.7928 16.3285 27.8061 16.2681 27.8159C16.2963 27.811 16.3237 27.804 16.3519 27.7991L16.2029 27.8243C16.2249 27.8208 16.2468 27.8194 16.2681 27.8159L16.1672 27.8306L16.0862 27.8446C15.9496 27.8649 15.8116 27.8803 15.6736 27.8971C15.5844 27.9076 15.4951 27.9209 15.4045 27.9293L15.3839 27.9321H15.3709C15.3338 27.9356 15.2954 27.937 15.2583 27.9405C15.1732 27.9482 15.0881 27.9531 15.0029 27.9594C14.7139 27.9804 14.4229 27.9937 14.1291 27.9965C14.103 27.9965 14.0783 28 14.0529 28H13.9478C13.9231 28 13.8998 27.9972 13.8751 27.9965C13.5745 27.9932 13.2742 27.9804 12.9744 27.958C12.8927 27.9517 12.8103 27.9468 12.7286 27.9398C12.6957 27.9363 12.6621 27.9356 12.6284 27.9321H12.6161C12.3715 27.9067 12.1278 27.8745 11.885 27.8355C11.92 27.8411 11.9557 27.8439 11.9907 27.8488C11.9035 27.8355 11.8143 27.8278 11.7278 27.8138L11.6042 27.7914C11.6372 27.797 11.6694 27.8061 11.7024 27.8117C11.6433 27.8019 11.5857 27.7879 11.5266 27.7774L11.506 27.7738C11.4696 27.7675 11.4346 27.7584 11.3989 27.7521C11.1665 27.7099 10.9351 27.6618 10.7049 27.6079L10.7708 27.6212L10.6624 27.596L10.7049 27.6079C10.6054 27.5841 10.5086 27.554 10.4097 27.5274L10.4255 27.5316C10.4152 27.5295 10.4056 27.526 10.3953 27.5232L10.4097 27.5274C10.21 27.4749 10.0102 27.4224 9.81387 27.3615L9.78916 27.3545C9.76238 27.3461 9.7363 27.3363 9.70952 27.3272L9.69717 27.3229C9.58664 27.2872 9.47818 27.2459 9.36834 27.2074L9.51113 27.2571C9.43562 27.2312 9.36079 27.2039 9.28597 27.1766L9.36834 27.2074C9.20016 27.1486 9.03197 27.0898 8.86722 27.0247L8.78415 26.9918C8.77248 26.9869 8.7615 26.9813 8.74983 26.9771C8.63689 26.9307 8.52453 26.8828 8.41277 26.8335C8.48622 26.8657 8.56036 26.8958 8.63381 26.9267C8.52467 26.8811 8.4162 26.8328 8.30842 26.7852C8.34344 26.8006 8.37776 26.8181 8.41277 26.8335C8.29744 26.7831 8.18074 26.7341 8.06678 26.6802L8.04207 26.6697C8.02697 26.6627 8.01118 26.6564 7.99608 26.6487C7.94185 26.6235 7.89036 26.5927 7.83681 26.5668C7.72698 26.5122 7.61714 26.459 7.50868 26.4022C7.60135 26.4506 7.69609 26.4954 7.79014 26.5423C7.65547 26.4753 7.52182 26.4062 7.38923 26.335C7.42973 26.3567 7.46818 26.3805 7.50868 26.4022C7.41738 26.3539 7.32676 26.3063 7.23684 26.2566L7.20388 26.2391C7.17025 26.2209 7.1373 26.2006 7.10434 26.1817C7.0611 26.1579 7.0206 26.1306 6.97803 26.1054L6.94165 26.0844L6.96018 26.0949C6.81122 26.0081 6.66431 25.9198 6.51947 25.8281C6.56272 25.8554 6.6039 25.8862 6.64784 25.9135C6.57713 25.8701 6.50848 25.8239 6.43915 25.7798L6.43297 25.7756L6.32725 25.7077C6.27371 25.6727 6.22291 25.6342 6.17005 25.5985C6.05678 25.5221 5.94077 25.45 5.82956 25.3702C5.91262 25.4297 6.00118 25.4822 6.08561 25.5396C5.93734 25.4388 5.78768 25.3401 5.64352 25.233L5.67373 25.2561C5.66343 25.2491 5.65382 25.2407 5.64352 25.233C5.50897 25.1322 5.37786 25.0271 5.24674 24.9221L5.24056 24.9172L5.23919 24.9165C5.18152 24.8696 5.12249 24.8248 5.06482 24.7772L5.06414 24.7765L5.04148 24.7569C4.88222 24.6238 4.72433 24.488 4.57125 24.348L4.55889 24.3375L4.54928 24.3284C4.49299 24.2773 4.44082 24.2234 4.3859 24.1708C4.27743 24.0686 4.16897 23.9664 4.06394 23.8607L4.0509 23.8481C4.00765 23.8047 3.96646 23.7591 3.9239 23.715C3.95822 23.7507 3.99049 23.7886 4.0255 23.8236C3.99049 23.7879 3.95754 23.75 3.92253 23.7136L3.86624 23.6534C3.77081 23.5526 3.67471 23.4532 3.58203 23.3496L3.58066 23.3475C3.5278 23.2886 3.47632 23.2284 3.42483 23.1689L3.38502 23.122C3.24523 22.9593 3.10882 22.7935 2.97588 22.6249C2.96215 22.6081 2.9491 22.5899 2.93606 22.5724C2.80692 22.4073 2.68149 22.2392 2.55987 22.0683C2.54477 22.0466 2.53104 22.0242 2.51594 22.0031C2.43879 21.8924 2.36304 21.7806 2.28871 21.6678C2.25096 21.6104 2.21183 21.5529 2.17476 21.4941C2.1576 21.4675 2.14249 21.4402 2.12602 21.4136C2.05613 21.3022 1.98793 21.1897 1.92145 21.0761C1.91321 21.0607 1.9036 21.046 1.89468 21.0313C1.86928 20.9886 1.84319 20.9466 1.81848 20.9032C1.79994 20.871 1.78347 20.8374 1.76562 20.8045C1.70131 20.6882 1.63861 20.5711 1.57752 20.453C1.548 20.3977 1.51711 20.3438 1.48897 20.2878C1.47112 20.2528 1.45533 20.217 1.43817 20.182C1.37733 20.0581 1.31874 19.9329 1.26243 19.8068C1.23978 19.7584 1.21575 19.7101 1.19378 19.6611L1.15809 19.5764C1.09424 19.4308 1.03452 19.283 0.97617 19.1346L0.928116 19.0163L0.908208 18.961C0.840485 18.782 0.776628 18.6016 0.716681 18.4197L0.693341 18.3525L0.686476 18.3308C0.516745 17.8107 0.377827 17.2807 0.270472 16.7436L0.26498 16.7156C0.253996 16.6602 0.246445 16.6042 0.236148 16.5496C0.20591 16.391 0.178447 16.2318 0.153771 16.0721L0.143474 16.0105C0.13249 15.9321 0.125625 15.8523 0.116015 15.7731C0.0968619 15.6297 0.0801551 15.4859 0.0659017 15.3419C0.0645288 15.3278 0.0617829 15.3138 0.0610964 15.2991C0.059037 15.2802 0.0597235 15.2606 0.0583505 15.241C0.0205298 14.8283 0.0010597 14.4141 0 13.9996C0 13.8197 0.00686476 13.6405 0.0137295 13.4619C0.0178484 13.3604 0.0219672 13.2589 0.0274591 13.1574C0.0356968 13.0222 0.0466804 12.8885 0.0583505 12.7548C0.0507993 12.836 0.0405021 12.9172 0.0350103 12.9991C0.0405021 12.9165 0.0514857 12.8353 0.0583505 12.7527C0.0672747 12.6518 0.0761989 12.5517 0.0871825 12.4516C0.102285 12.3186 0.119447 12.1855 0.137982 12.0532C0.151711 11.9538 0.165441 11.8551 0.18123 11.757V11.7563C0.202511 11.6254 0.226537 11.4952 0.25125 11.3657V11.3643C0.269785 11.2669 0.28832 11.1696 0.308914 11.073V11.0723C0.336861 10.9435 0.366612 10.8151 0.398156 10.6872C0.42081 10.592 0.44415 10.4961 0.46955 10.4015V10.4001C0.503187 10.2741 0.538884 10.1502 0.575954 10.0263L0.57664 10.0235C0.604099 9.92963 0.631558 9.83511 0.661077 9.74269L0.661763 9.74059C0.700892 9.61806 0.742768 9.49694 0.785329 9.37581L0.786702 9.37231C0.818966 9.28059 0.850544 9.18887 0.884868 9.09785L0.885555 9.09575C0.930176 8.97602 0.977543 8.85839 1.02491 8.74077L1.02697 8.73587C1.06335 8.64625 1.09974 8.55593 1.13749 8.46701L1.13886 8.4649C1.19028 8.34754 1.24314 8.23084 1.29744 8.11483C1.33794 8.02731 1.37776 7.93909 1.42032 7.85297L1.42169 7.85017C1.47661 7.73744 1.53427 7.62682 1.59263 7.51619L1.59606 7.50919C1.64068 7.42447 1.68461 7.33835 1.73129 7.25433L1.73267 7.25153C1.79239 7.14301 1.85555 7.03588 1.91802 6.92876L1.92282 6.92106C1.97156 6.83844 2.01961 6.75512 2.06973 6.6732L2.07179 6.6704C2.13631 6.56538 2.20359 6.46245 2.27086 6.35953L2.27636 6.35043C2.32921 6.27061 2.3807 6.19009 2.43493 6.11098L2.43699 6.10747C2.50564 6.00665 2.57772 5.90793 2.64911 5.80851L2.65666 5.79871C2.71295 5.72099 2.76787 5.64327 2.82554 5.56695L2.82828 5.56345C2.90105 5.46683 2.97725 5.37231 3.05345 5.27709L3.06169 5.26659C3.12141 5.19167 3.18045 5.11675 3.24154 5.04323C3.24224 5.04191 3.24317 5.04072 3.24429 5.03973C3.32117 4.94731 3.40149 4.85629 3.48112 4.76597L3.49142 4.75477C3.55457 4.68265 3.61636 4.61054 3.68089 4.53982L3.68432 4.53702C3.76532 4.4481 3.84976 4.36198 3.93282 4.27586L3.94449 4.26396C4.01108 4.19534 4.0763 4.12603 4.14426 4.05881C4.14537 4.05782 4.1463 4.05664 4.147 4.05531L4.17172 4.03011L4.14838 4.05461C4.22183 3.9818 4.29803 3.91178 4.37285 3.84036C4.31107 3.89918 4.24723 3.95589 4.18613 4.0154C4.25821 3.94469 4.33373 3.87677 4.40718 3.80746L4.42022 3.79555C4.49024 3.72974 4.55889 3.66322 4.6296 3.59951L4.63303 3.59671C4.70923 3.52739 4.78886 3.46158 4.86712 3.39366C4.80122 3.45038 4.73394 3.50429 4.66941 3.5624C4.7463 3.49379 4.82593 3.42867 4.9035 3.36216C4.9084 3.35779 4.91343 3.35358 4.9186 3.34955C4.99068 3.28794 5.06208 3.22493 5.13553 3.16471L5.13896 3.16191L5.17466 3.1318L5.13965 3.16121C5.21928 3.0961 5.30097 3.03378 5.38198 2.97077C5.31333 3.02468 5.24262 3.07649 5.17466 3.1318C5.25498 3.06599 5.33873 3.00368 5.4211 2.93996L5.43689 2.92736C5.51241 2.86925 5.58586 2.81043 5.66206 2.75372L5.6648 2.75162L5.69981 2.72501L5.66686 2.75022C5.74993 2.68861 5.83436 2.63049 5.91811 2.57098C5.84603 2.62279 5.77121 2.6718 5.69981 2.72501C5.78425 2.662 5.87212 2.60319 5.95862 2.54297L5.97646 2.53037C6.05335 2.47576 6.12955 2.42044 6.20781 2.36793L6.21055 2.36583L6.24419 2.34273L6.21399 2.36373C6.29979 2.30632 6.38835 2.25241 6.47485 2.19639C6.39865 2.2454 6.3197 2.29232 6.24419 2.34273C6.33343 2.28321 6.42473 2.2279 6.51535 2.17049L6.53526 2.15859C6.6142 2.10817 6.69246 2.05636 6.77278 2.00805L6.77552 2.00665C6.78603 1.99948 6.79679 1.9927 6.80779 1.98635L6.78033 2.00385C6.86957 1.94994 6.96087 1.89953 7.05149 1.84772C6.97048 1.89393 6.88742 1.93804 6.80779 1.98635C6.90046 1.93033 6.99657 1.87852 7.09062 1.82531L7.11258 1.81271C7.19359 1.7672 7.27322 1.71959 7.35491 1.67478L7.35766 1.67338L7.38855 1.65657L7.36383 1.67058C7.45719 1.62016 7.5533 1.57325 7.64735 1.52494C7.56154 1.56905 7.47367 1.61036 7.38855 1.65657C7.48603 1.60406 7.58557 1.55645 7.68373 1.50604C7.69194 1.50249 7.69996 1.49852 7.70776 1.49414C7.79014 1.45283 7.87114 1.40942 7.95489 1.36951L7.95695 1.36811L7.98647 1.3534L7.96519 1.36461C8.06335 1.3177 8.16358 1.27429 8.26312 1.22948C8.17113 1.27149 8.07777 1.30999 7.98647 1.3534C8.08807 1.30509 8.19172 1.26168 8.29469 1.21547L8.32078 1.20357C8.40384 1.16646 8.48622 1.12725 8.57066 1.09225L8.57272 1.09085C8.58199 1.08718 8.59115 1.08321 8.60018 1.07894L8.58233 1.08734C8.68667 1.04323 8.79308 1.00403 8.89879 0.962717C8.79926 1.00123 8.69903 1.03833 8.60018 1.07894C8.70589 1.03483 8.81436 0.995624 8.92145 0.953615L8.95097 0.942412C9.03472 0.909505 9.11709 0.875197 9.20222 0.84369H9.20359C9.21213 0.840003 9.22083 0.836731 9.22968 0.833888L9.21457 0.839489C9.32784 0.79818 9.44386 0.761772 9.5585 0.723263C9.44866 0.760371 9.33814 0.794679 9.22968 0.833888C9.3402 0.793979 9.45278 0.758971 9.56399 0.721162L9.59831 0.70996C9.68206 0.681953 9.76375 0.651847 9.8475 0.625941H9.84888L9.8729 0.618239L9.86123 0.62244C9.98068 0.585332 10.1022 0.553124 10.2223 0.519517L10.2038 0.525118L10.2518 0.511115L10.2937 0.499212C10.3651 0.479608 10.4351 0.457903 10.5072 0.438999H10.5079L10.5292 0.433398L10.5223 0.435498C10.6459 0.403991 10.7715 0.377385 10.8964 0.349379L10.8525 0.359181C10.9157 0.344478 10.9781 0.329074 11.042 0.315771L11.1024 0.301768C11.1285 0.296167 11.1539 0.289165 11.1793 0.284264L11.18 0.283564L11.1985 0.280763L11.1957 0.281463C11.3248 0.254857 11.4559 0.233853 11.587 0.211448L11.517 0.22335C11.6337 0.203046 11.749 0.17924 11.8657 0.161736L11.8664 0.161036L11.8781 0.159636H11.8808C11.9852 0.143532 12.0916 0.13303 12.1966 0.119027C12.1259 0.128129 12.0538 0.136531 11.9831 0.146333C12.0875 0.13163 12.1932 0.119027 12.2982 0.106424L12.1966 0.119027C12.3181 0.103623 12.439 0.0854192 12.5618 0.0728164H12.5625L12.5769 0.0714161H12.5776C12.6813 0.0609137 12.7863 0.0553124 12.8907 0.0476107L12.7884 0.0553124C12.8749 0.0483109 12.9607 0.0413093 13.0472 0.035708L12.8907 0.0476107C13.0163 0.0378085 13.1412 0.0252057 13.2675 0.0189043H13.2682L13.284 0.0182041C13.3883 0.0126028 13.4941 0.0126028 13.5984 0.00980221L13.5401 0.0112025C13.6931 0.00630142 13.8455 0 14 0C21.7325 0 28 6.26711 28 13.9996C28 14.2342 27.9931 14.4674 27.9822 14.6991C27.978 14.7761 27.9705 14.8524 27.9657 14.9288ZM5.87761 18.4779C5.98402 18.947 6.45288 19.241 6.92243 19.1332C11.795 18.02 15.9331 18.4737 19.22 20.4831C19.6319 20.7338 20.1694 20.6056 20.4206 20.1918C20.4802 20.0942 20.52 19.9853 20.5377 19.8716C20.5554 19.758 20.5506 19.6419 20.5236 19.5302C20.4966 19.4185 20.448 19.3134 20.3805 19.2212C20.3131 19.1289 20.2282 19.0514 20.1309 18.9932C16.4404 16.7373 11.8664 16.2128 6.5332 17.4325C6.42235 17.4563 6.31727 17.5024 6.22407 17.568C6.13088 17.6337 6.05144 17.7176 5.99041 17.8149C5.92938 17.9122 5.88797 18.021 5.8686 18.1348C5.84923 18.2486 5.8523 18.3653 5.87761 18.4779ZM5.31882 14.3812C5.49456 14.9575 6.10415 15.2823 6.68216 15.108C11.1333 13.7574 16.8702 14.4267 20.632 16.7401C21.1448 17.0544 21.8176 16.8941 22.1334 16.3816C22.2082 16.2595 22.2583 16.1233 22.2808 15.9811C22.3033 15.839 22.2976 15.6936 22.2642 15.5537C22.2309 15.4138 22.1704 15.2821 22.0864 15.1663C22.0024 15.0506 21.8965 14.9532 21.775 14.8797C17.453 12.2255 11.1326 11.477 6.04717 13.0201C5.91127 13.06 5.78447 13.1269 5.67413 13.2171C5.56378 13.3073 5.47208 13.419 5.40434 13.5456C5.33659 13.6722 5.29415 13.8112 5.27947 13.9547C5.26479 14.0981 5.27816 14.2431 5.31882 14.3812ZM23.6175 10.1586C18.4223 7.07439 10.2017 6.78453 5.25635 8.28636C5.09324 8.33399 4.94105 8.41423 4.80863 8.52241C4.67621 8.63058 4.5662 8.76454 4.48501 8.91648C4.40381 9.06842 4.35306 9.23531 4.33569 9.40744C4.31832 9.57957 4.33469 9.75351 4.38384 9.91913C4.59321 10.6116 5.32431 11.0016 6.01697 10.7915C10.3246 9.48433 17.7681 9.73149 22.2817 12.411C22.5801 12.5887 22.9349 12.6402 23.2702 12.5545C23.6054 12.4688 23.8944 12.2527 24.0754 11.9524C24.1631 11.8045 24.2208 11.6403 24.2452 11.4693C24.2696 11.2984 24.2601 11.1242 24.2175 10.957C24.1748 10.7898 24.0997 10.633 23.9967 10.4959C23.8937 10.3588 23.7647 10.2441 23.6175 10.1586ZM13.9629 0H14C13.8655 0 13.7323 0.00630142 13.5984 0.00980221C13.7199 0.00630142 13.8407 0 13.9629 0Z" fill="#FFD2D7"/>
</svg>
