<svg width="30" height="30" viewBox="0 0 30 30" fill="none" xmlns="http://www.w3.org/2000/svg">
<rect width="30" height="30" rx="4" fill="#323232"/>
<path d="M18.2339 14L20.2338 16L22.2339 14" stroke="#A7A7A7" stroke-width="1.3" stroke-linecap="round"/>
<mask id="path-3-inside-1_128_2087" fill="white">
<path d="M20.8512 16.3827C21.1774 14.8847 20.9635 13.3197 20.2475 11.9641C19.5314 10.6085 18.3593 9.54964 16.9381 8.97459C15.517 8.39954 13.9383 8.34532 12.481 8.8215C11.0238 9.29769 9.78175 10.2736 8.97439 11.5769C8.16702 12.8802 7.84629 14.4269 8.06886 15.9437C8.29144 17.4605 9.043 18.8499 10.1908 19.8663C11.3385 20.8826 12.8086 21.4606 14.3412 21.4981C15.8738 21.5355 17.3703 21.03 18.5664 20.071L17.7714 19.0796C16.8092 19.8512 15.6052 20.2579 14.3722 20.2277C13.1392 20.1976 11.9566 19.7326 11.0332 18.9149C10.1098 18.0972 9.50519 16.9795 9.32612 15.7592C9.14706 14.5389 9.40509 13.2946 10.0546 12.2461C10.7042 11.1976 11.7034 10.4125 12.8757 10.0294C14.0481 9.64628 15.3182 9.6899 16.4615 10.1525C17.6048 10.6152 18.5478 11.467 19.1238 12.5576C19.6999 13.6482 19.872 14.9073 19.6096 16.1124L20.8512 16.3827Z"/>
</mask>
<path d="M20.8512 16.3827C21.1774 14.8847 20.9635 13.3197 20.2475 11.9641C19.5314 10.6085 18.3593 9.54964 16.9381 8.97459C15.517 8.39954 13.9383 8.34532 12.481 8.8215C11.0238 9.29769 9.78175 10.2736 8.97439 11.5769C8.16702 12.8802 7.84629 14.4269 8.06886 15.9437C8.29144 17.4605 9.043 18.8499 10.1908 19.8663C11.3385 20.8826 12.8086 21.4606 14.3412 21.4981C15.8738 21.5355 17.3703 21.03 18.5664 20.071L17.7714 19.0796C16.8092 19.8512 15.6052 20.2579 14.3722 20.2277C13.1392 20.1976 11.9566 19.7326 11.0332 18.9149C10.1098 18.0972 9.50519 16.9795 9.32612 15.7592C9.14706 14.5389 9.40509 13.2946 10.0546 12.2461C10.7042 11.1976 11.7034 10.4125 12.8757 10.0294C14.0481 9.64628 15.3182 9.6899 16.4615 10.1525C17.6048 10.6152 18.5478 11.467 19.1238 12.5576C19.6999 13.6482 19.872 14.9073 19.6096 16.1124L20.8512 16.3827Z" stroke="#A7A7A7" stroke-width="2.6" mask="url(#path-3-inside-1_128_2087)"/>
</svg>
