<svg width="24" height="18" viewBox="0 0 24 18" fill="none" xmlns="http://www.w3.org/2000/svg">
<mask id="path-1-inside-1_45_340" fill="white">
<path fill-rule="evenodd" clip-rule="evenodd" d="M0 1C0 0.447716 0.447715 0 1 0H23C23.5523 0 24 0.447715 24 1V6.35294C23.606 6.35294 23.2159 6.4351 22.8519 6.59474C22.488 6.75437 22.1573 6.98834 21.8787 7.28331C21.6001 7.57827 21.3791 7.92844 21.2284 8.31383C21.0776 8.69922 21 9.11227 21 9.52941C21 9.94655 21.0776 10.3596 21.2284 10.745C21.3791 11.1304 21.6001 11.4806 21.8787 11.7755C22.1573 12.0705 22.488 12.3045 22.8519 12.4641C23.2159 12.6237 23.606 12.7059 24 12.7059V17C24 17.5523 23.5523 18 23 18H1C0.447716 18 0 17.5523 0 17V12.7059C0.393966 12.7059 0.784073 12.6237 1.14805 12.4641C1.51203 12.3045 1.84274 12.0705 2.12132 11.7755C2.3999 11.4806 2.62087 11.1304 2.77164 10.745C2.9224 10.3596 3 9.94655 3 9.52941C3 9.11227 2.9224 8.69922 2.77164 8.31383C2.62087 7.92844 2.3999 7.57827 2.12132 7.28331C1.84274 6.98835 1.51203 6.75437 1.14805 6.59474C0.784073 6.4351 0.393966 6.35294 0 6.35294V1Z"/>
</mask>
<path d="M24 6.35294V8.35294H26V6.35294H24ZM21.8787 7.28331L23.3327 8.65656L23.3327 8.65655L21.8787 7.28331ZM21.2284 8.31383L19.3658 7.58519L19.3658 7.58519L21.2284 8.31383ZM24 12.7059H26V10.7059H24V12.7059ZM0 12.7059V10.7059H-2V12.7059H0ZM1.14805 12.4641L1.95134 14.2957L1.95135 14.2957L1.14805 12.4641ZM2.12132 11.7755L3.57535 13.1488H3.57535L2.12132 11.7755ZM2.77164 10.745L0.909089 10.0164L0.909088 10.0164L2.77164 10.745ZM2.77164 8.31383L0.909088 9.04246H0.909088L2.77164 8.31383ZM2.12132 7.28331L3.57535 5.91006L3.57535 5.91006L2.12132 7.28331ZM1.14805 6.59474L1.95135 4.76315L1.95134 4.76315L1.14805 6.59474ZM0 6.35294H-2V8.35294H0V6.35294ZM1 -2C-0.656855 -2 -2 -0.656853 -2 1H2C2 1.55228 1.55229 2 1 2V-2ZM23 -2H1V2H23V-2ZM26 1C26 -0.656855 24.6569 -2 23 -2V2C22.4477 2 22 1.55229 22 1H26ZM26 6.35294V1H22V6.35294H26ZM24 4.35294C23.327 4.35294 22.6636 4.49346 22.0487 4.76315L23.6552 8.42632C23.7683 8.37675 23.8851 8.35294 24 8.35294V4.35294ZM22.0487 4.76315C21.4341 5.03269 20.8833 5.42442 20.4247 5.91006L23.3327 8.65655C23.4312 8.55227 23.5419 8.47604 23.6552 8.42632L22.0487 4.76315ZM20.4247 5.91006C19.9662 6.39546 19.6082 6.9656 19.3658 7.58519L23.0909 9.04246C23.1501 8.89128 23.234 8.76108 23.3327 8.65656L20.4247 5.91006ZM19.3658 7.58519C19.1235 8.20467 19 8.865 19 9.52941H23C23 9.35955 23.0317 9.19376 23.0909 9.04246L19.3658 7.58519ZM19 9.52941C19 10.1938 19.1235 10.8542 19.3658 11.4736L23.0909 10.0164C23.0317 9.86506 23 9.69928 23 9.52941H19ZM19.3658 11.4736C19.6082 12.0932 19.9662 12.6634 20.4247 13.1488L23.3327 10.4023C23.234 10.2977 23.1501 10.1675 23.0909 10.0164L19.3658 11.4736ZM20.4247 13.1488C20.8833 13.6344 21.4341 14.0261 22.0487 14.2957L23.6552 10.6325C23.5419 10.5828 23.4312 10.5066 23.3327 10.4023L20.4247 13.1488ZM22.0487 14.2957C22.6636 14.5654 23.327 14.7059 24 14.7059V10.7059C23.8851 10.7059 23.7683 10.6821 23.6552 10.6325L22.0487 14.2957ZM26 17V12.7059H22V17H26ZM23 20C24.6569 20 26 18.6569 26 17H22C22 16.4477 22.4477 16 23 16V20ZM1 20H23V16H1V20ZM-2 17C-2 18.6569 -0.656853 20 1 20V16C1.55228 16 2 16.4477 2 17H-2ZM-2 12.7059V17H2V12.7059H-2ZM0.344757 10.6325C0.231718 10.6821 0.114932 10.7059 0 10.7059V14.7059C0.672999 14.7059 1.33643 14.5654 1.95134 14.2957L0.344757 10.6325ZM0.667293 10.4023C0.5688 10.5066 0.458117 10.5828 0.344754 10.6325L1.95135 14.2957C2.56594 14.0261 3.11669 13.6344 3.57535 13.1488L0.667293 10.4023ZM0.909088 10.0164C0.849948 10.1675 0.766013 10.2977 0.667293 10.4023L3.57535 13.1488C4.03378 12.6634 4.3918 12.0932 4.63419 11.4736L0.909088 10.0164ZM1 9.52941C1 9.69928 0.968278 9.86506 0.909089 10.0164L4.63419 11.4736C4.87653 10.8542 5 10.1938 5 9.52941H1ZM0.909088 9.04246C0.968278 9.19376 1 9.35955 1 9.52941H5C5 8.865 4.87653 8.20467 4.63419 7.5852L0.909088 9.04246ZM0.667294 8.65656C0.766012 8.76108 0.849948 8.89129 0.909088 9.04246L4.63419 7.5852C4.3918 6.9656 4.03378 6.39546 3.57535 5.91006L0.667294 8.65656ZM0.344754 8.42632C0.458117 8.47604 0.568801 8.55227 0.667294 8.65656L3.57535 5.91006C3.11669 5.42442 2.56594 5.03269 1.95135 4.76315L0.344754 8.42632ZM0 8.35294C0.114932 8.35294 0.231717 8.37675 0.344756 8.42632L1.95134 4.76315C1.33643 4.49346 0.673 4.35294 0 4.35294V8.35294ZM-2 1V6.35294H2V1H-2Z" fill="white" mask="url(#path-1-inside-1_45_340)"/>
<path d="M9 2V17" stroke="white" stroke-width="2" stroke-linecap="square"/>
</svg>
